<svg width="1.25em" height="1.25em" viewBox="0 0 20 20" fill="none"
  xmlns="http://www.w3.org/2000/svg">
  <path d="M16.9419 3.48991C15.6473 2.88418 14.263 2.44396 12.8157 2.1933C12.638 2.51464 12.4304 2.94685 12.2872 3.29068C10.7488 3.05931 9.22445 3.05931 7.7143 3.29068C7.57116 2.94685 7.3588 2.51464 7.17947 2.1933C5.73067 2.44396 4.3448 2.8858 3.05016 3.49312C0.438869 7.43912 -0.269009 11.2871 0.0849306 15.0805C1.81688 16.3738 3.49534 17.1595 5.14548 17.6737C5.55291 17.1129 5.91628 16.5168 6.22931 15.8886C5.63313 15.6621 5.06211 15.3825 4.52256 15.058C4.6657 14.9519 4.80571 14.8411 4.94098 14.727C8.23183 16.2662 11.8074 16.2662 15.0589 14.727C15.1958 14.8411 15.3358 14.9519 15.4774 15.058C14.9362 15.3841 14.3637 15.6637 13.7675 15.8902C14.0805 16.5168 14.4423 17.1145 14.8513 17.6752C16.503 17.1611 18.183 16.3755 19.915 15.0805C20.3303 10.683 19.2056 6.87035 16.9419 3.48991ZM6.67765 12.7476C5.68977 12.7476 4.87963 11.8253 4.87963 10.7023C4.87963 9.57921 5.67247 8.65537 6.67765 8.65537C7.68285 8.65537 8.49297 9.57759 8.47567 10.7023C8.47723 11.8253 7.68285 12.7476 6.67765 12.7476ZM13.3223 12.7476C12.3344 12.7476 11.5243 11.8253 11.5243 10.7023C11.5243 9.57921 12.3171 8.65537 13.3223 8.65537C14.3275 8.65537 15.1376 9.57759 15.1203 10.7023C15.1203 11.8253 14.3275 12.7476 13.3223 12.7476Z" fill="#5865F2"/>
</svg>
