<svg width="1.25em" height="1.25em" viewBox="0 0 20 20" fill="none"
  xmlns="http://www.w3.org/2000/svg">
  <path d="M9.99943 19.2104L13.6839 7.87695H6.32031L9.99943 19.2104Z" fill="#E24329"/>
  <path d="M1.1594 7.87695L0.037381 11.3202C-0.0641521 11.6328 0.0454967 11.978 0.313487 12.1729L9.99935 19.2103L1.1594 7.87695Z" fill="#FCA326"/>
  <path d="M1.15942 7.87703H6.32019L4.09914 1.05145C3.98547 0.70225 3.49006 0.70225 3.3723 1.05145L1.15942 7.87703Z" fill="#E24329"/>
  <path d="M18.8446 7.87695L19.9626 11.3202C20.0641 11.6328 19.9545 11.978 19.6865 12.1729L9.99927 19.2103L18.8446 7.87695Z" fill="#FCA326"/>
  <path d="M18.8446 7.87703H13.6838L15.9008 1.05145C16.0145 0.70225 16.5099 0.70225 16.6276 1.05145L18.8446 7.87703Z" fill="#E24329"/>
  <path d="M9.99927 19.2103L13.6838 7.87695H18.8446L9.99927 19.2103Z" fill="#FC6D26"/>
  <path d="M9.99931 19.2103L1.15942 7.87695H6.32019L9.99931 19.2103Z" fill="#FC6D26"/>
</svg>
