<svg xmlns="http://www.w3.org/2000/svg"
  xmlns:xlink="http://www.w3.org/1999/xlink" width="20pt" height="20pt" viewBox="0 0 20 20" version="1.1">
  <g id="surface1">
    <path style=" stroke:none;fill-rule:nonzero;fill:rgb(100%,47.843137%,34.901961%);fill-opacity:1;" d="M 15.019531 6.769531 L 15.019531 4.421875 C 15.652344 4.125 16.058594 3.492188 16.0625 2.792969 L 16.0625 2.738281 C 16.0625 1.738281 15.25 0.929688 14.253906 0.929688 L 14.199219 0.929688 C 13.199219 0.929688 12.390625 1.738281 12.390625 2.738281 L 12.390625 2.792969 C 12.394531 3.492188 12.800781 4.125 13.433594 4.421875 L 13.433594 6.769531 C 12.539062 6.90625 11.699219 7.277344 10.996094 7.84375 L 4.554688 2.824219 C 4.601562 2.660156 4.625 2.488281 4.628906 2.316406 C 4.628906 1.191406 3.71875 0.277344 2.59375 0.277344 C 1.46875 0.273438 0.554688 1.183594 0.550781 2.308594 C 0.550781 3.4375 1.460938 4.351562 2.585938 4.351562 C 2.941406 4.351562 3.285156 4.253906 3.589844 4.078125 L 9.933594 9.015625 C 8.769531 10.777344 8.800781 13.070312 10.011719 14.800781 L 8.082031 16.730469 C 7.929688 16.679688 7.765625 16.65625 7.601562 16.652344 C 6.679688 16.652344 5.929688 17.402344 5.929688 18.328125 C 5.929688 19.25 6.679688 20 7.601562 20 C 8.527344 20 9.277344 19.25 9.277344 18.328125 C 9.273438 18.164062 9.246094 18 9.199219 17.84375 L 11.105469 15.9375 C 12.8125 17.25 15.152344 17.363281 16.976562 16.21875 C 18.800781 15.078125 19.722656 12.921875 19.285156 10.8125 C 18.847656 8.707031 17.144531 7.09375 15.019531 6.769531 M 14.226562 14.496094 C 13.265625 14.519531 12.367188 14.023438 11.882812 13.195312 C 11.394531 12.367188 11.394531 11.34375 11.882812 10.515625 C 12.367188 9.6875 13.265625 9.191406 14.226562 9.214844 C 15.648438 9.265625 16.773438 10.433594 16.773438 11.855469 C 16.777344 13.273438 15.652344 14.441406 14.230469 14.492188 "/>
  </g>
</svg>
