<svg stroke="currentColor" width="1.25em" viewBox="0 0 16 16" height="1.25em" fill="none" xmlns="http://www.w3.org/2000/svg">
<g transform="translate(2,2)" />
<mask id="path-1-inside-1" fill="white">
<path d="M16 8C16 9.90483 15.3203 11.7471 14.0832 13.1956C12.8462 14.644 11.1328 15.6035 9.25148 15.9015C7.3701 16.1995 5.44414 15.8164 3.82001 14.8211C2.19588 13.8259 0.980171 12.2837 0.391548 10.4721C-0.197075 8.66054 -0.119981 6.69836 0.608964 4.93853C1.33791 3.1787 2.67086 1.73672 4.36808 0.871948C6.06529 0.00717549 8.01537 -0.223632 9.86756 0.221041C11.7198 0.665713 13.3525 1.75668 14.4721 3.29772L12.8541 4.47329C12.0144 3.31751 10.7898 2.49928 9.40067 2.16578C8.01153 1.83228 6.54897 2.00538 5.27606 2.65396C4.00315 3.30254 3.00343 4.38403 2.45672 5.7039C1.91001 7.02377 1.85219 8.49541 2.29366 9.8541C2.73513 11.2128 3.64691 12.3694 4.86501 13.1158C6.08311 13.8623 7.52758 14.1496 8.93861 13.9261C10.3496 13.7026 11.6346 12.983 12.5624 11.8967C13.4902 10.8104 14 9.42862 14 8H16Z"/>
</mask>
<path d="M16 8C16 9.90483 15.3203 11.7471 14.0832 13.1956C12.8462 14.644 11.1328 15.6035 9.25148 15.9015C7.3701 16.1995 5.44414 15.8164 3.82001 14.8211C2.19588 13.8259 0.980171 12.2837 0.391548 10.4721C-0.197075 8.66054 -0.119981 6.69836 0.608964 4.93853C1.33791 3.1787 2.67086 1.73672 4.36808 0.871948C6.06529 0.00717549 8.01537 -0.223632 9.86756 0.221041C11.7198 0.665713 13.3525 1.75668 14.4721 3.29772L12.8541 4.47329C12.0144 3.31751 10.7898 2.49928 9.40067 2.16578C8.01153 1.83228 6.54897 2.00538 5.27606 2.65396C4.00315 3.30254 3.00343 4.38403 2.45672 5.7039C1.91001 7.02377 1.85219 8.49541 2.29366 9.8541C2.73513 11.2128 3.64691 12.3694 4.86501 13.1158C6.08311 13.8623 7.52758 14.1496 8.93861 13.9261C10.3496 13.7026 11.6346 12.983 12.5624 11.8967C13.4902 10.8104 14 9.42862 14 8H16Z" stroke-width="4" mask="url(#path-1-inside-1)"/>
</svg>
