<svg viewBox="0 0 27 26" fill="none" xmlns="http://www.w3.org/2000/svg">
    <path fill-rule="evenodd" clip-rule="evenodd"
          d="M1.95493 7.25984C1.01931 7.84461 0.450928 8.87011 0.450928 9.97344V22.5998C0.450928 24.3672 1.88362 25.7998 3.65093 25.7998H22.8509C24.6182 25.7998 26.0509 24.3672 26.0509 22.5998V9.97344C26.0509 8.87011 25.4825 7.84461 24.5469 7.25985L14.9469 1.25984C13.9093 0.611303 12.5926 0.611302 11.5549 1.25984L1.95493 7.25984ZM6.13845 11.1354C5.4032 10.6452 4.40981 10.8439 3.91965 11.5791C3.42948 12.3144 3.62816 13.3078 4.36341 13.7979L12.3634 19.1313C12.9008 19.4896 13.601 19.4896 14.1384 19.1313L22.1384 13.7979C22.8737 13.3078 23.0724 12.3144 22.5822 11.5791C22.092 10.8439 21.0987 10.6452 20.3634 11.1354L13.2509 15.877L6.13845 11.1354Z"
          fill="currentColor"/>
</svg>
