<svg width="32" height="64" viewBox="0 0 32 64" fill="none" xmlns="http://www.w3.org/2000/svg">
<path fill-rule="evenodd" clip-rule="evenodd" d="M31.3872 16.9977L31.3883 16.9587C31.3972 16.7373 31.4452 16.3791 31.4452 16.3791H31.5397C31.6195 16.3791 31.6843 16.4433 31.6843 16.5234L31.6846 23.7985C31.6846 23.8782 31.6196 23.9428 31.5408 23.9428L31.4206 23.9427C31.4162 23.9407 31.3987 23.9147 31.3873 23.636L31.385 18.4647C31.3851 17.6792 31.3857 17.0946 31.3872 16.9977Z" fill="#1F1E24"/>
<path fill-rule="evenodd" clip-rule="evenodd" d="M0.40614 21.4673C0.397222 21.2458 0.349228 20.8876 0.349228 20.8876H0.254758C0.174922 20.8876 0.110705 20.9521 0.111333 21.0325V25.4937C0.111957 25.5737 0.211342 25.6405 0.291425 25.6405L0.373863 25.6404C0.378245 25.6384 0.395783 25.6124 0.407139 25.3336L0.409448 22.3661C0.409342 21.9229 0.408751 21.5862 0.407292 21.5054L0.40614 21.4673Z" fill="#1F1E24"/>
<path fill-rule="evenodd" clip-rule="evenodd" d="M0.40614 15.4132C0.397222 15.1917 0.349228 14.8335 0.349228 14.8335H0.254758C0.174922 14.8335 0.110705 14.898 0.111333 14.9784V19.4396C0.111957 19.5196 0.211342 19.5864 0.291425 19.5864L0.373863 19.5863C0.378245 19.5843 0.395783 19.5583 0.407139 19.2796L0.409448 16.312C0.409342 15.8688 0.408751 15.5321 0.407292 15.4513L0.40614 15.4132Z" fill="#1F1E24"/>
<path fill-rule="evenodd" clip-rule="evenodd" d="M0.40614 10.8006C0.397222 10.5791 0.349228 10.2209 0.349228 10.2209H0.254758C0.174922 10.2209 0.110705 10.2854 0.111333 10.3658L0.115419 12.5137C0.116043 12.5937 0.211342 12.6675 0.291425 12.6675L0.373863 12.6674C0.378245 12.6654 0.395783 12.6394 0.407139 12.3606L0.409448 11.6994C0.409342 11.2562 0.408751 10.9195 0.407292 10.8387L0.40614 10.8006Z" fill="#1F1E24"/>
<path fill-rule="evenodd" clip-rule="evenodd" d="M25.925 0C29.5566 0 31.4951 2.08113 31.4951 5.71212V58.5228C31.4951 62.0364 29.2069 63.9323 25.6348 63.9323H6.08819C2.25329 63.9323 0.221553 61.4897 0.293625 58.4438V5.69825C0.293625 2.06726 2.37625 0 6.00785 0H25.925Z" fill="#1F1E24"/>
<path d="M25.5935 0.526367C29.2719 0.526367 30.9913 2.36665 30.9913 6.05094V58.3951C30.9913 61.6601 28.7769 63.4613 25.445 63.4613H6.34228C3.04855 63.4534 0.810547 61.5176 0.810547 58.4708V6.05236C0.810547 2.36808 2.66379 0.526367 6.34228 0.526367H25.5935Z" fill="#060606" stroke="black" stroke-width="0.5"/>
<ellipse cx="19.045" cy="2.50247" rx="0.296937" ry="0.296937" transform="rotate(-74 19.045 2.50247)" fill="#003472"/>
<path fill-rule="evenodd" clip-rule="evenodd" d="M8.07169 1.65723C8.27563 1.65723 8.42457 1.82326 8.42457 2.02808V2.25059C8.42457 3.15177 9.15201 3.95433 10.0493 3.95433H21.9562C22.8535 3.95433 23.581 3.15177 23.581 2.25059V2.02808C23.581 1.82326 23.7463 1.65723 23.9502 1.65723L26.9739 1.65723C28.5647 1.65723 29.9094 3.38436 29.9094 4.98191V58.9452C29.9094 60.673 28.4582 62.3419 26.5437 62.3419H5.3905C3.19806 62.3419 2.00831 61.0197 2.01763 59.0892V4.98191C2.01763 3.38436 3.36956 1.65723 4.96029 1.65723L8.07169 1.65723Z" fill="#111111"/>
</svg>
