<svg width="24" height="24" viewBox="0 0 24 24" fill="none" xmlns="http://www.w3.org/2000/svg">
<path fill-rule="evenodd" clip-rule="evenodd" d="M20.9999 16.9201V19.9201C21.0022 20.4832 20.767 21.0213 20.352 21.402C19.937 21.7827 19.3808 21.9708 18.8199 21.9201C15.7428 21.5857 12.7869 20.5342 10.1899 18.8501C7.77377 17.3148 5.72528 15.2663 4.18994 12.8501C2.49992 10.2413 1.44818 7.27109 1.11994 4.1801C1.06941 3.62097 1.25621 3.06635 1.63471 2.65172C2.0132 2.23709 2.54853 2.00063 3.10994 2.0001H6.10994C7.1138 1.99022 7.96944 2.72607 8.10994 3.7201C8.23656 4.68016 8.47139 5.62283 8.80994 6.5301C9.08468 7.26097 8.90896 8.0849 8.35994 8.6401L7.08994 9.9101C8.5135 12.4136 10.5864 14.4865 13.0899 15.9101L14.3599 14.6401C14.9151 14.0911 15.7391 13.9154 16.4699 14.1901C17.3772 14.5286 18.3199 14.7635 19.2799 14.8901C20.2855 15.032 21.0251 15.9049 20.9999 16.9201Z" stroke="#808080" stroke-width="2" stroke-linecap="round" stroke-linejoin="round"/>
</svg>
