<svg width="1.25em" height="1.25em" viewBox="0 0 250 250" fill="none"
  xmlns="http://www.w3.org/2000/svg">
  <path d="M110.162 98.6399V88.8798C106.774 88.343 103.352 88.0489 99.9221 87.9997C66.7157 87.9296 37.3167 109.448 27.3453 141.122C17.3738 172.796 29.144 207.275 56.4021 226.24C35.9838 204.388 30.3143 172.577 41.9261 145.016C53.5378 117.455 80.2623 99.2922 110.162 98.6399Z" fill="#25F4EE"/>
  <path d="M112 209.2C130.566 209.175 145.827 194.548 146.64 176V10.48H176.88C176.263 7.02146 175.968 3.51305 176 0H134.64V165.36C133.952 184.003 118.655 198.77 100 198.8C94.4252 198.753 88.9413 197.382 84 194.8C90.4953 203.799 100.902 209.151 112 209.2Z" fill="#25F4EE"/>
  <path d="M233.358 66.64V57.44C222.229 57.4438 211.347 54.1597 202.078 48C210.204 57.4457 221.184 63.9889 233.358 66.64Z" fill="#25F4EE"/>
  <path d="M202.083 47.9999C192.952 37.6026 187.919 24.2371 187.923 10.3999H176.883C179.765 25.8614 188.877 39.4577 202.083 47.9999Z" fill="#FE2C55"/>
  <path d="M99.9201 129.36C83.9878 129.442 70.1558 140.357 66.3717 155.833C62.5877 171.31 69.8229 187.376 83.9201 194.8C76.2816 184.254 75.2026 170.316 81.1271 158.72C87.0515 147.124 98.9786 139.83 112 139.84C115.472 139.883 118.92 140.422 122.24 141.44V99.3601C118.85 98.8521 115.428 98.5848 112 98.5601H110.16V130.56C106.823 129.665 103.374 129.261 99.9201 129.36Z" fill="#FE2C55"/>
  <path d="M233.358 66.6401V98.6401C212.756 98.6003 192.689 92.079 175.998 80.0001V164.08C175.91 206.035 141.874 240 99.9184 240C84.3373 240.028 69.1315 235.22 56.3984 226.24C77.6482 249.095 110.719 256.618 139.764 245.205C168.809 233.791 187.912 205.767 187.918 174.56V90.7201C204.665 102.72 224.757 109.156 245.358 109.12V67.9201C241.325 67.9073 237.304 67.4784 233.358 66.6401Z" fill="#FE2C55"/>
  <path d="M176.001 164.08V79.9999C192.742 92.0094 212.837 98.4467 233.441 98.3999V66.3999C221.269 63.8296 210.262 57.3717 202.081 47.9999C188.875 39.4577 179.762 25.8614 176.881 10.3999H146.641V176C146.036 190.774 136.14 203.544 121.985 207.818C107.829 212.091 92.5202 206.931 83.8407 194.96C69.7434 187.536 62.5082 171.47 66.2922 155.993C70.0763 140.517 83.9083 129.602 99.8407 129.52C103.314 129.551 106.764 130.09 110.081 131.12V99.1199C80.0132 99.6293 53.0869 117.856 41.4421 145.581C29.7974 173.307 35.6341 205.294 56.3207 227.12C69.1793 235.804 84.4072 240.302 99.9207 240C141.876 240 175.912 206.035 176.001 164.08Z" fill="black"/>
</svg>
