<svg width="1.5em" height="1.5em" viewBox="0 0 24 24" fill="none"
  xmlns="http://www.w3.org/2000/svg">
  <path d="M23.6434 4.94477C22.8086 5.31477 21.9114 5.56477 20.9686 5.67777C21.9305 5.10177 22.6686 4.18777 23.0166 3.09977C22.1166 3.63377 21.1194 4.02177 20.0585 4.22977C19.2086 3.32577 17.9985 2.75977 16.6585 2.75977C14.0865 2.75977 12.0005 4.84577 12.0005 7.41977C12.0005 7.78377 12.0425 8.13777 12.1205 8.47977C8.2475 8.28477 4.8165 6.42977 2.5185 3.61177C2.1185 4.30177 1.8885 5.10177 1.8885 5.95377C1.8885 7.56977 2.7115 8.99677 3.9605 9.83177C3.1965 9.80677 2.4785 9.59777 1.8505 9.24877V9.30877C1.8505 11.5658 3.4555 13.4488 5.5875 13.8768C5.1955 13.9828 4.7845 14.0388 4.3605 14.0388C4.0605 14.0388 3.7675 14.0108 3.4835 13.9568C4.0765 15.8068 5.7965 17.1548 7.8355 17.1908C6.2405 18.4408 4.2315 19.1858 2.0495 19.1858C1.6735 19.1858 1.3025 19.1637 0.9375 19.1208C2.9995 20.4437 5.4475 21.2138 8.0775 21.2138C16.6474 21.2138 21.3326 14.1158 21.3326 7.95977C21.3326 7.75977 21.3274 7.55777 21.3185 7.35777C22.2286 6.69977 23.0185 5.88077 23.6415 4.94777L23.6434 4.94477Z" fill="#1DA1F2"/>
</svg>
