<svg width="36" height="24" viewBox="0 0 36 24" fill="currentColor" xmlns="http://www.w3.org/2000/svg"><circle cx="18" cy="12" r="11.5" fill-opacity="0.1" stroke-opacity="0.4" stroke="currentColor" stroke-dasharray="2 2"/><path d="M18.75 7.75C18.75 7.55109 18.671 7.36032 18.5303 7.21967C18.3897 7.07902 18.1989 7 18 7C17.8011 7 17.6103 7.07902 17.4697 7.21967C17.329 7.36032 17.25 7.55109 17.25 7.75V11.25H13.75C13.5511 11.25 13.3603 11.329 13.2197 11.4697C13.079 11.6103 13 11.8011 13 12C13 12.1989 13.079 12.3897 13.2197 12.5303C13.3603 12.671 13.5511 12.75 13.75 12.75H17.25V16.25C17.25 16.4489 17.329 16.6397 17.4697 16.7803C17.6103 16.921 17.8011 17 18 17C18.1989 17 18.3897 16.921 18.5303 16.7803C18.671 16.6397 18.75 16.4489 18.75 16.25V12.75H22.25C22.4489 12.75 22.6397 12.671 22.7803 12.5303C22.921 12.3897 23 12.1989 23 12C23 11.8011 22.921 11.6103 22.7803 11.4697C22.6397 11.329 22.4489 11.25 22.25 11.25H18.75V7.75Z" fill="currentColor"/></svg>
