<svg width="16" height="16" viewBox="0 0 16 16" fill="currentColor" xmlns="http://www.w3.org/2000/svg">
<path d="M7 9.5C7.82812 9.5 8.5 8.82812 8.5 8C8.5 7.17188 7.82812 6.5 7 6.5C6.17188 6.5 5.5 7.17188 5.5 8C5.5 8.53516 5.78125 9.00391 6.20312 9.26953C6.43359 9.41406 6.70703 9.5 7 9.5Z"/>
<path fill-rule="evenodd" clip-rule="evenodd" d="M4 2C2.89453 2 2 2.89453 2 4V12C2 13.1055 2.89453 14 4 14H12C13.1055 14 14 13.1055 14 12V4C14 2.89453 13.1055 2 12 2H4ZM7 11C8.39844 11 9.57422 10.043 9.90625 8.75H12C12.4141 8.75 12.75 8.41406 12.75 8C12.75 7.58594 12.4141 7.25 12 7.25H9.90625C9.57422 5.95703 8.39844 5 7 5C5.34375 5 4 6.34375 4 8C4 8.94141 4.4375 9.78516 5.11719 10.3359C5.62891 10.75 6.28516 11 7 11Z"/>
</svg>
