<svg width="48" height="48" fill="none" xmlns="http://www.w3.org/2000/svg"><path fill-rule="evenodd" clip-rule="evenodd" d="M12.996 16.178A13.439 13.439 0 0 0 10.5 24c0 7.456 6.044 13.5 13.5 13.5 2.916 0 5.615-.924 7.822-2.496L12.996 16.178Zm3.182-3.182 18.826 18.826A13.439 13.439 0 0 0 37.5 24c0-7.456-6.044-13.5-13.5-13.5-2.916 0-5.615.924-7.822 2.496Zm20.55 23.731A17.944 17.944 0 0 0 42 24c0-9.941-8.059-18-18-18S6 14.059 6 24s8.059 18 18 18c4.97 0 9.468-2.014 12.725-5.27l.003-.002v-.001Z" fill="currentColor"/></svg>