<svg xmlns="http://www.w3.org/2000/svg" width="16" height="16" viewBox="0 0 16 16" fill="none"><path stroke="currentColor" stroke-linecap="round" stroke-linejoin="round" stroke-width="1.5" d="M14 10.667V5.333a1.333 1.333 0 0 0-.667-1.153l-4.666-2.667a1.333 1.333 0 0 0-1.334 0L2.667 4.18A1.333 1.333 0 0 0 2 5.333v5.334a1.333 1.333 0 0 0 .667 1.153l4.666 2.667a1.333 1.333 0 0 0 1.334 0l4.666-2.667A1.333 1.333 0 0 0 14 10.667Z"/><path stroke="currentColor" stroke-linecap="round" stroke-linejoin="round" stroke-width="1.5" d="m2.18 4.633 5.82 3.374 5.82-3.374M8 14.733V8"/></svg>
