<svg width="10" height="10" viewBox="0 0 10 10" fill="none" xmlns="http://www.w3.org/2000/svg">
<path d="M1.79114 0.721559C1.49577 0.426193 1.01689 0.426193 0.721524 0.721559C0.426158 1.01693 0.426159 1.49581 0.721524 1.79117L3.93037 5.00002L0.721555 8.20883C0.426189 8.50419 0.426189 8.98308 0.721555 9.27844C1.01692 9.57381 1.4958 9.57381 1.79117 9.27844L4.99998 6.06963L8.20883 9.27848C8.50419 9.57384 8.98308 9.57384 9.27844 9.27848C9.57381 8.98311 9.57381 8.50423 9.27844 8.20886L6.06959 5.00002L9.27847 1.79114C9.57384 1.49577 9.57384 1.01689 9.27847 0.721524C8.9831 0.426158 8.50422 0.426159 8.20886 0.721524L4.99998 3.9304L1.79114 0.721559Z" fill="currentColor"/>
</svg>
