<svg width="12" height="8" viewBox="0 0 12 8" fill="none" xmlns="http://www.w3.org/2000/svg">
<path d="M7.21967 6.46967C6.92678 6.76256 6.92678 7.23744 7.21967 7.53033C7.51256 7.82322 7.98744 7.82322 8.28033 7.53033L11.2803 4.53033C11.5732 4.23744 11.5732 3.76256 11.2803 3.46967L8.28033 0.46967C7.98744 0.176777 7.51256 0.176777 7.21967 0.46967C6.92678 0.762563 6.92678 1.23744 7.21967 1.53033L9.68934 4L7.21967 6.46967Z" fill="currentColor"/>
<path d="M4.78033 6.46967C5.07322 6.76256 5.07322 7.23744 4.78033 7.53033C4.48744 7.82322 4.01256 7.82322 3.71967 7.53033L0.71967 4.53033C0.426777 4.23744 0.426777 3.76256 0.71967 3.46967L3.71967 0.46967C4.01256 0.176777 4.48744 0.176777 4.78033 0.46967C5.07322 0.762563 5.07322 1.23744 4.78033 1.53033L2.31066 4L4.78033 6.46967Z" fill="currentColor"/>
</svg>
