<svg width="16" height="16" viewBox="0 0 16 16" fill="none" xmlns="http://www.w3.org/2000/svg">
<path d="M8 7.98999V7.99999M3.46012 4.84271L2.81628 5.88403C2.68081 6.10314 2.76504 6.38383 2.9599 6.55612C3.82824 7.32388 3.82825 8.67611 2.95992 9.44387C2.76507 9.61616 2.68084 9.89685 2.81631 10.116L3.46014 11.1573C3.59 11.3673 3.86848 11.4338 4.11036 11.3616C5.26915 11.0161 6.54871 11.678 6.8223 12.8011C6.88157 13.0444 7.08518 13.25 7.34377 13.25H8.65623C8.91482 13.25 9.11842 13.0444 9.1777 12.8011C9.45129 11.678 10.7308 11.0161 11.8896 11.3616C12.1315 11.4338 12.41 11.3673 12.5399 11.1573L13.1837 10.116C13.3192 9.89685 13.2349 9.61616 13.0401 9.44387C12.1717 8.67611 12.1718 7.32388 13.0401 6.55612C13.235 6.38383 13.3192 6.10314 13.1837 5.88403L12.5399 4.84271C12.41 4.63267 12.1315 4.56622 11.8897 4.63835C10.7309 4.98389 9.45129 4.32196 9.1777 3.19892C9.11842 2.95562 8.91482 2.75 8.65623 2.75H7.34377C7.08518 2.75 6.88157 2.95562 6.8223 3.19892C6.54871 4.32196 5.26913 4.98389 4.11033 4.63835C3.86845 4.56622 3.58997 4.63267 3.46012 4.84271Z" stroke="currentColor" stroke-width="1.5" stroke-linecap="round" stroke-linejoin="round"/>
</svg>
