<svg width="16" height="16" viewBox="0 0 16 16" fill="none" xmlns="http://www.w3.org/2000/svg">
<path fill-rule="evenodd" clip-rule="evenodd" d="M4 3.5C3.72386 3.5 3.5 3.72386 3.5 4C3.5 4.27614 3.72386 4.5 4 4.5C4.27614 4.5 4.5 4.27614 4.5 4C4.5 3.72386 4.27614 3.5 4 3.5ZM2 4C2 2.89543 2.89543 2 4 2C5.10457 2 6 2.89543 6 4C6 4.83934 5.48296 5.55793 4.75 5.85462V6.25C4.75 6.94036 5.30964 7.5 6 7.5H10C10.6904 7.5 11.25 6.94036 11.25 6.25V5.85462C10.517 5.55793 10 4.83934 10 4C10 2.89543 10.8954 2 12 2C13.1046 2 14 2.89543 14 4C14 4.83934 13.483 5.55793 12.75 5.85462V6.25C12.75 7.76878 11.5188 9 10 9H8.75V10.1454C9.48296 10.4421 10 11.1607 10 12C10 13.1046 9.10457 14 8 14C6.89543 14 6 13.1046 6 12C6 11.1607 6.51704 10.4421 7.25 10.1454V9H6C4.48122 9 3.25 7.76878 3.25 6.25V5.85462C2.51704 5.55793 2 4.83934 2 4ZM12 3.5C11.7239 3.5 11.5 3.72386 11.5 4C11.5 4.27614 11.7239 4.5 12 4.5C12.2761 4.5 12.5 4.27614 12.5 4C12.5 3.72386 12.2761 3.5 12 3.5ZM8 11.5C7.72386 11.5 7.5 11.7239 7.5 12C7.5 12.2761 7.72386 12.5 8 12.5C8.27614 12.5 8.5 12.2761 8.5 12C8.5 11.7239 8.27614 11.5 8 11.5Z" fill="currentColor"/>
</svg>
