<svg width="16" height="16" viewBox="0 0 16 16" fill="none" xmlns="http://www.w3.org/2000/svg">
<path d="M5.61364 5.61364H4.65909C3.60473 5.61364 2.75 6.46837 2.75 7.52273V11.3409C2.75 12.3953 3.60473 13.25 4.65909 13.25H8.47727C9.53163 13.25 10.3864 12.3953 10.3864 11.3409V10.3864M5.61364 5.61364V8.47727C5.61364 9.53163 6.46837 10.3864 7.52273 10.3864H10.3864M5.61364 5.61364V4.65909C5.61364 3.60473 6.46837 2.75 7.52273 2.75H11.3409C12.3953 2.75 13.25 3.60473 13.25 4.65909V8.47727C13.25 9.53163 12.3953 10.3864 11.3409 10.3864H10.3864" stroke="currentColor" stroke-width="1.5"/>
</svg>
