<svg viewBox="0 0 12 14" fill="none" xmlns="http://www.w3.org/2000/svg">
<path d="M7.93938 10.2308V12.3077C7.93938 12.6898 7.63393 13 7.25757 13H1.34847C1.16765 13 0.994222 12.9271 0.866356 12.7972C0.738491 12.6674 0.666656 12.4913 0.666656 12.3077V4.46154C0.666656 4.07939 0.972111 3.76923 1.34847 3.76923H2.48484C2.78943 3.76902 3.09351 3.79455 3.39393 3.84554M7.93938 10.2308H9.98484C10.3612 10.2308 10.6667 9.92062 10.6667 9.53846V6.53846C10.6667 3.79385 8.7012 1.51631 6.1212 1.07631C5.82078 1.02531 5.5167 0.999791 5.21211 1H4.07575C3.69938 1 3.39393 1.31016 3.39393 1.69231V3.84554M7.93938 10.2308H4.07575C3.89492 10.2308 3.7215 10.1578 3.59363 10.028C3.46576 9.89817 3.39393 9.72207 3.39393 9.53846V3.84554M10.6667 7.92308V6.76923C10.6667 6.2184 10.4512 5.69012 10.0676 5.30063C9.68396 4.91113 9.16369 4.69231 8.6212 4.69231H7.71211C7.53128 4.69231 7.35786 4.61937 7.22999 4.48954C7.10213 4.3597 7.03029 4.18361 7.03029 4V3.07692C7.03029 2.80418 6.97739 2.5341 6.87459 2.28212C6.7718 2.03014 6.62113 1.80118 6.43119 1.60832C6.24126 1.41546 6.01577 1.26247 5.7676 1.1581C5.51943 1.05372 5.25345 1 4.98484 1H4.30302" stroke="currentColor" stroke-width="1.2" stroke-linecap="round" stroke-linejoin="round"/>
</svg>
