<svg width="32" height="32" viewBox="0 0 32 32" fill="none" xmlns="http://www.w3.org/2000/svg">
<path d="M2.91016 1.45228C2.91016 0.871369 2.9867 0.622404 3.13981 0.373441C3.3312 0.165973 3.59916 0 4.2116 0H27.8288C28.3647 0 28.5944 0.124479 28.7857 0.331948C28.9771 0.539417 29.0537 0.829875 29.0537 1.45228V18.4647C29.0537 19.0456 28.9771 19.2946 28.8623 19.4606C28.7653 19.6035 28.6384 19.7194 28.492 19.7988C28.3456 19.8781 28.1839 19.9187 28.0202 19.917H3.90536C3.59914 19.917 3.29292 19.7925 3.13981 19.5021C2.9867 19.3361 2.91016 19.0871 2.91016 18.4647V1.45228Z" fill="black"/>
<path d="M3.44528 19.3342H28.517C28.6319 19.3342 28.7467 19.2512 28.8233 19.1682C28.8998 19.0852 28.8998 18.9607 28.8998 18.5873V1.45037C28.8998 0.952447 28.8615 0.620496 28.6701 0.454521C28.4788 0.247052 28.2874 0.164062 27.828 0.164062H4.21083C3.71322 0.164062 3.44528 0.288545 3.25389 0.496014C3.10078 0.661989 3.0625 0.910953 3.0625 1.45037V18.5873C3.0625 18.9607 3.06248 19.0852 3.13904 19.1682C3.21559 19.2512 3.33044 19.3342 3.44528 19.3342Z" fill="#575757"/>
<path fill-rule="evenodd" clip-rule="evenodd" d="M15.9986 0.91181C16.0159 0.924251 16.036 0.931374 16.0567 0.932422C16.0775 0.933469 16.0981 0.928401 16.1164 0.917758C16.1347 0.907115 16.15 0.891296 16.1606 0.871982C16.1713 0.852667 16.1769 0.830582 16.1769 0.808075C16.1769 0.785569 16.1713 0.763483 16.1606 0.744169C16.15 0.724854 16.1347 0.709035 16.1164 0.698392C16.0981 0.687749 16.0775 0.682681 16.0567 0.683729C16.036 0.684776 16.0159 0.6919 15.9986 0.704341C15.9813 0.6919 15.9612 0.684776 15.9405 0.683729C15.9198 0.682681 15.8991 0.687749 15.8808 0.698392C15.8626 0.709035 15.8473 0.724854 15.8366 0.744169C15.8259 0.763483 15.8203 0.785569 15.8203 0.808075C15.8203 0.830582 15.8259 0.852667 15.8366 0.871982C15.8473 0.891296 15.8626 0.907115 15.8808 0.917758C15.8991 0.928401 15.9198 0.933469 15.9405 0.932422C15.9612 0.931374 15.9813 0.924251 15.9986 0.91181Z" fill="black" stroke="black" stroke-width="0.3"/>
<path fill-rule="evenodd" clip-rule="evenodd" d="M0 19.5004V19.293H32V19.5004C32 19.5004 31.2727 19.7494 30.4689 19.8324C29.933 19.8739 29.0526 19.9984 27.0622 19.9984H5.0909C3.36842 19.9984 1.91387 19.8739 1.26315 19.7909C0.612436 19.7079 0 19.5004 0 19.5004Z" fill="#444444"/>
<path fill-rule="evenodd" clip-rule="evenodd" d="M3.94141 1.32812H28.0562V17.6767H3.94141V1.32812Z" fill="black"/>
</svg>
