<svg width="32" height="32" viewBox="0 0 32 32" fill="currentColor" xmlns="http://www.w3.org/2000/svg">
<path fill-rule="evenodd" clip-rule="evenodd" d="M3.2002 16C3.2002 8.93077 8.93095 3.20001 16.0002 3.20001C23.0694 3.20001 28.8002 8.93077 28.8002 16V18C28.8002 20.4301 26.8302 22.4 24.4002 22.4C22.8384 22.4 21.4666 21.5863 20.6857 20.3596C19.5173 21.6149 17.8504 22.4 16.0002 22.4C12.4656 22.4 9.6002 19.5346 9.6002 16C9.6002 12.4654 12.4656 9.60001 16.0002 9.60001C17.5137 9.60001 18.9045 10.1254 20.0002 11.0037V10.8C20.0002 10.1373 20.5375 9.60001 21.2002 9.60001C21.8629 9.60001 22.4002 10.1373 22.4002 10.8V18C22.4002 19.1046 23.2956 20 24.4002 20C25.5048 20 26.4002 19.1046 26.4002 18V16C26.4002 10.2563 21.744 5.60001 16.0002 5.60001C10.2564 5.60001 5.6002 10.2563 5.6002 16C5.6002 21.7438 10.2564 26.4 16.0002 26.4C16.6629 26.4 17.2002 26.9373 17.2002 27.6C17.2002 28.2628 16.6629 28.8 16.0002 28.8C8.93095 28.8 3.2002 23.0693 3.2002 16ZM20.0002 16C20.0002 13.7909 18.2093 12 16.0002 12C13.7911 12 12.0002 13.7909 12.0002 16C12.0002 18.2092 13.7911 20 16.0002 20C18.2093 20 20.0002 18.2092 20.0002 16Z"/>
</svg>
