<svg width="32" height="32" viewBox="0 0 32 32" fill="none" xmlns="http://www.w3.org/2000/svg">
<path transform="translate(4.4 4.4)" d="M23.2 6.8C23.2 6.8 18 4.26667 11.6 0C5.2 4.26667 0 6.8 0 6.8C0 18 9.46667 23.2 11.6 23.2C13.7333 23.2 23.2 18 23.2 6.8Z" fill="currentColor" fill-opacity="0.2"/>
<path fill-rule="evenodd" clip-rule="evenodd" transform="translate(3.23 3.21)" d="M12.4837 0.0484076C12.3701 0.0740076 11.7493 0.438808 11.0965 0.862808C7.67254 3.08201 3.93654 5.26121 0.947736 6.78281C0.0069355 7.26121 -0.0538644 7.41001 0.0245356 8.97641C0.237336 13.1396 1.56694 16.6596 4.16054 19.9204C4.71574 20.618 6.30614 22.2036 7.03574 22.7844C8.58774 24.0228 10.4645 25.0692 11.7525 25.4132C12.9845 25.7444 14.1621 25.4804 16.0005 24.4628C17.4821 23.642 18.6821 22.722 20.0245 21.3796C21.5813 19.8228 22.6661 18.3332 23.5829 16.4964C24.7669 14.1236 25.3717 11.7508 25.5109 8.94121C25.5861 7.41641 25.5205 7.26281 24.5813 6.78121C21.4325 5.16521 17.8789 3.09001 14.4437 0.864408C13.6805 0.370008 13.1813 0.0804078 13.0293 0.0452078C12.7605 -0.0155922 12.7573 -0.0155924 12.4837 0.0484076ZM13.4453 3.04681C16.5969 5.08282 19.8392 6.9749 23.1621 8.71721C23.1733 8.72521 23.1557 9.05321 23.1221 9.44521C22.7845 13.354 21.2245 16.7732 18.5061 19.5556C17.0693 21.0244 15.2437 22.3172 13.7509 22.9236C13.2421 23.13 13.1189 23.1588 12.7685 23.1588C12.4181 23.1588 12.2949 23.13 11.7861 22.9236C10.2933 22.3172 8.46774 21.0244 7.03094 19.5556C4.31254 16.7732 2.75254 13.354 2.41494 9.44521C2.38759 9.20351 2.37423 8.96044 2.37494 8.71721C2.38614 8.70921 2.86294 8.45481 3.43574 8.15241C5.99094 6.80201 10.0133 4.42601 12.1813 2.98441L12.7525 2.60681C12.7589 2.60521 13.0709 2.80201 13.4453 3.04681Z" fill="currentColor"/>
<path fill-rule="evenodd" clip-rule="evenodd" transform="translate(3.23 3.21)" d="M16.9859 8.16007C17.5542 8.50105 17.7385 9.23816 17.3975 9.80646L13.0775 17.0065C12.8874 17.3233 12.5619 17.5349 12.1952 17.5801C11.8284 17.6252 11.4613 17.4989 11.2 17.2376L8.32003 14.3576C7.8514 13.889 7.8514 13.1292 8.32003 12.6605C8.78866 12.1919 9.54845 12.1919 10.0171 12.6605L11.8103 14.4538L15.3396 8.57167C15.6805 8.00337 16.4177 7.81909 16.9859 8.16007Z" fill="currentColor"/>
</svg>
