<svg width="16" height="16" viewBox="0 0 16 16" fill="currentColor" xmlns="http://www.w3.org/2000/svg">
<path d="M2.75 2.75C2.28587 2.75 1.84075 2.93437 1.51256 3.26256C1.18437 3.59075 1 4.03587 1 4.5V5.51587L7.51087 9.20925C7.66274 9.28518 7.83021 9.32471 8 9.32471C8.16979 9.32471 8.33726 9.28518 8.48913 9.20925L15 5.51675V4.5C15 4.03587 14.8156 3.59075 14.4874 3.26256C14.1592 2.93437 13.7141 2.75 13.25 2.75H2.75Z" fill="#42434D"/>
<path d="M15 6.98412L9.07625 10.3835C8.74209 10.5506 8.37361 10.6376 8 10.6376C7.62639 10.6376 7.25791 10.5506 6.92375 10.3835L1 6.98412V11.5C1 11.9641 1.18437 12.4092 1.51256 12.7374C1.84075 13.0656 2.28587 13.25 2.75 13.25H13.25C13.7141 13.25 14.1592 13.0656 14.4874 12.7374C14.8156 12.4092 15 11.9641 15 11.5V6.98412Z" fill="#42434D"/>
</svg>
