<svg width="16" height="16" viewBox="0 0 16 16" fill="currentColor" xmlns="http://www.w3.org/2000/svg">
<path fill-rule="evenodd" clip-rule="evenodd" d="M8.86557 3.01159C8.4859 2.32947 7.5141 2.32947 7.13443 3.01159L2.12899 12.0043C1.7566 12.6734 2.235 13.5 2.99456 13.5H13.0054C13.765 13.5 14.2434 12.6734 13.871 12.0043L8.86557 3.01159ZM7.2052 8.75146C7.2315 9.17221 7.58042 9.5 8.00199 9.5C8.42356 9.5 8.77248 9.17221 8.79877 8.75146L8.93961 6.49805C8.97341 5.95721 8.54388 5.5 8.00199 5.5C7.46009 5.5 7.03056 5.95721 7.06437 6.49805L7.2052 8.75146ZM7.25199 11.25C7.25199 11.6642 7.58778 12 8.00199 12C8.4162 12 8.75199 11.6642 8.75199 11.25C8.75199 10.8358 8.4162 10.5 8.00199 10.5C7.58778 10.5 7.25199 10.8358 7.25199 11.25Z" />
</svg>
