<svg width="16" height="16" viewBox="0 0 16 16" fill="none" xmlns="http://www.w3.org/2000/svg">
<path d="M2.949 7C2.80739 7.40946 2.75 7.76622 2.75 8C2.75 9 3.8 12.25 8 12.25C8.35547 12.25 8.68838 12.2267 9 12.1835M11.5 11.1743C12.8384 10.134 13.25 8.62607 13.25 8C13.25 7 12.2 3.75 8 3.75C6.7199 3.75 5.73242 4.05191 4.97809 4.5M7.11612 7.11612C7.60427 6.62797 8.39573 6.62797 8.88388 7.11612C9.37204 7.60428 9.37204 8.39573 8.88388 8.88389M3 3L13 13" stroke="currentColor" stroke-width="1.5" stroke-linecap="round" stroke-linejoin="round"/>
</svg>
