<svg width="16" height="16" viewBox="0 0 16 16" fill="currentColor" xmlns="http://www.w3.org/2000/svg">
<path fill-rule="evenodd" clip-rule="evenodd" d="M3.73171 3.12581C3.6414 3.04301 3.52195 2.99793 3.39853 3.00007C3.2751 3.00222 3.15734 3.05141 3.07006 3.13729C2.98277 3.22318 2.93277 3.33904 2.93059 3.46048C2.92841 3.58192 2.97423 3.69945 3.05838 3.78831L12.269 12.8508C12.3127 12.8969 12.3653 12.9338 12.4237 12.9594C12.4821 12.985 12.5452 12.9988 12.6092 12.9999C12.6732 13.001 12.7367 12.9895 12.796 12.9659C12.8553 12.9423 12.9092 12.9072 12.9545 12.8627C12.9997 12.8182 13.0354 12.7652 13.0593 12.7068C13.0833 12.6484 13.0951 12.5859 13.0939 12.523C13.0928 12.46 13.0788 12.398 13.0528 12.3405C13.0267 12.283 12.9892 12.2312 12.9424 12.1883L11.8339 11.0977C12.7776 10.3945 13.5035 9.44658 13.9301 8.36018C14.0233 8.12181 14.0233 7.85793 13.9301 7.61956C13.4688 6.44041 12.6552 5.42646 11.5966 4.7113C10.5379 3.99613 9.2839 3.61332 7.99974 3.61331C6.94781 3.6116 5.91205 3.86809 4.98627 4.35956L3.73171 3.12581ZM6.57241 5.91956L7.26607 6.60206C7.56574 6.44794 7.90759 6.39197 8.24184 6.44229C8.57609 6.4926 8.88529 6.64658 9.12443 6.8818C9.36357 7.11702 9.52015 7.4212 9.57139 7.75006C9.62262 8.07892 9.56584 8.41528 9.40929 8.71018L10.1023 9.39268C10.4349 8.91151 10.5865 8.33126 10.5309 7.75194C10.4753 7.17261 10.2161 6.6305 9.79794 6.21904C9.37975 5.80757 8.82878 5.55253 8.23998 5.49786C7.65118 5.44319 7.06145 5.59233 6.57241 5.91956Z"/>
<path d="M8.47552 10.4446L10.0782 12.0214C9.40998 12.2485 8.70792 12.364 8.00101 12.3633C5.29626 12.3633 2.9866 10.7008 2.06998 8.35706C1.97667 8.1185 1.97667 7.85436 2.06998 7.61581C2.38027 6.82606 2.85029 6.10653 3.45158 5.50081L5.50397 7.52081C5.42641 7.92132 5.44958 8.33441 5.57147 8.72409C5.69336 9.11377 5.91026 9.46821 6.20327 9.75651C6.49628 10.0448 6.85651 10.2582 7.25256 10.3781C7.64861 10.4981 8.06846 10.5209 8.47552 10.4446Z"/>
</svg>
