<svg width="16" height="16" viewBox="0 0 16 16" fill="currentColor" xmlns="http://www.w3.org/2000/svg">
<path d="M8.00009 9.60714C8.42125 9.60714 8.82516 9.43782 9.12296 9.13642C9.42076 8.83502 9.58806 8.42624 9.58806 8C9.58806 7.57376 9.42076 7.16498 9.12296 6.86358C8.82516 6.56218 8.42125 6.39286 8.00009 6.39286C7.57894 6.39286 7.17503 6.56218 6.87723 6.86358C6.57943 7.16498 6.41212 7.57376 6.41212 8C6.41212 8.42624 6.57943 8.83502 6.87723 9.13642C7.17503 9.43782 7.57894 9.60714 8.00009 9.60714Z"/>
<path fill-rule="evenodd" clip-rule="evenodd" d="M2.06998 8.37929C1.97667 8.13392 1.97667 7.86223 2.06998 7.61686C2.53191 6.40475 3.34573 5.36264 4.40427 4.62777C5.46281 3.8929 6.71645 3.49972 8.00009 3.5C10.7041 3.5 13.0136 5.21 13.9302 7.62071C14.0236 7.86564 14.0229 8.13757 13.9302 8.38314C13.4683 9.59525 12.6545 10.6374 11.5959 11.3722C10.5374 12.1071 9.28374 12.5003 8.00009 12.5C5.2961 12.5 2.98656 10.79 2.06998 8.37929ZM10.5408 8C10.5408 8.68199 10.2732 9.33604 9.79668 9.81827C9.32019 10.3005 8.67394 10.5714 8.00009 10.5714C7.32625 10.5714 6.67999 10.3005 6.20351 9.81827C5.72703 9.33604 5.45934 8.68199 5.45934 8C5.45934 7.31802 5.72703 6.66396 6.20351 6.18173C6.67999 5.69949 7.32625 5.42857 8.00009 5.42857C8.67394 5.42857 9.32019 5.69949 9.79668 6.18173C10.2732 6.66396 10.5408 7.31802 10.5408 8Z"/>
</svg>
