<svg xmlns="http://www.w3.org/2000/svg" width="48" height="48" viewBox="0 0 48 48" fill="none">
  <path stroke="currentColor" stroke-linecap="round" stroke-linejoin="round" stroke-width="3.6"
        d="M11.127 39.944c.442-.987.847-1.989 1.218-3.01M30.3 43.801c.723-1.89 1.197-4.02 1.725-5.962M16.165 5.997a20.528 20.528 0 0 1 9.432-1.77 20.308 20.308 0 0 1 9.176 2.687c2.764 1.602 5.042 3.83 6.622 6.472C42.974 16.03 43.802 19 43.8 22.022c0 3.94-.335 7.807-.98 11.58l-2.02 10.2m-36.6-12.817a35.346 35.346 0 0 0 1.15-8.963c0-3.875 1.336-7.463 3.605-10.386m15.62 10.383c.008 7.484-1.62 14.893-4.775 21.782m-5.056-17.4c.144-1.442.218-2.902.218-4.38 0-2.362 1.013-4.628 2.815-6.299 1.803-1.67 4.248-2.609 6.797-2.609 2.55 0 4.995.939 6.797 2.61 1.803 1.67 2.816 3.936 2.816 6.298 0 1.084-.028 2.161-.087 3.232l-.687 4.186"/>
</svg>
