<svg width="16" height="16" fill="none" xmlns="http://www.w3.org/2000/svg"><path fill-rule="evenodd" clip-rule="evenodd" d="M12.204 3.01A2 2 0 0 1 14 5v6a2 2 0 0 1-2 2H4a2 2 0 0 1-2-2V5a2 2 0 0 1 1.796-1.99L4 3h8l.204.01ZM4 7a.5.5 0 0 0-.5.5V8h1.396c.672 0 1.28.396 1.552 1.009.598 1.344 2.506 1.344 3.104 0A1.699 1.699 0 0 1 11.104 8H12.5v-.5A.5.5 0 0 0 12 7H4Zm0-2.5a.5.5 0 0 0-.5.5v.564c.096-.024.195-.043.296-.053L4 5.5h8l.204.01c.101.011.2.03.296.054V5a.5.5 0 0 0-.5-.5H4Z" fill="currentColor"/></svg>