<svg width="16" height="16" viewBox="0 0 16 16" fill="none" xmlns="http://www.w3.org/2000/svg">
<path d="M7.31164 2.79471C7.53689 2.76522 7.76664 2.75 7.99994 2.75C8.23324 2.75 8.46298 2.76522 8.68824 2.79471M4.08675 4.5C4.35844 4.19645 4.66493 3.92469 4.99994 3.69101M10.9999 3.69101C11.3349 3.92469 11.6414 4.19645 11.9131 4.5M13.0325 6.5C13.1282 6.82151 13.1939 7.15592 13.2264 7.5M2.77344 7.5C2.80595 7.15592 2.87166 6.82151 2.96735 6.5M6.24994 8.75V7.5C6.24994 6.5335 7.03344 5.75 7.99994 5.75C8.96644 5.75 9.74994 6.5335 9.74994 7.5V8.75M6.24994 8.75H4.74994V12.25C4.74994 12.8023 5.19765 13.25 5.74994 13.25H10.2499C10.8022 13.25 11.2499 12.8023 11.2499 12.25V8.75H9.74994M6.24994 8.75H9.74994" stroke="currentColor" stroke-width="1.5" stroke-linecap="round" stroke-linejoin="round"/>
</svg>
