<svg width="16" height="16" viewBox="0 0 16 16" fill="currentColor" xmlns="http://www.w3.org/2000/svg">
<path fill-rule="evenodd" clip-rule="evenodd" d="M2 3.75C2 3.55109 2.07902 3.36032 2.21967 3.21967C2.36032 3.07902 2.55109 3 2.75 3H13.25C13.4489 3 13.6397 3.07902 13.7803 3.21967C13.921 3.36032 14 3.55109 14 3.75C14 3.94891 13.921 4.13968 13.7803 4.28033C13.6397 4.42098 13.4489 4.5 13.25 4.5H2.75C2.55109 4.5 2.36032 4.42098 2.21967 4.28033C2.07902 4.13968 2 3.94891 2 3.75ZM2 8C2 7.80109 2.07902 7.61032 2.21967 7.46967C2.36032 7.32902 2.55109 7.25 2.75 7.25H13.25C13.4489 7.25 13.6397 7.32902 13.7803 7.46967C13.921 7.61032 14 7.80109 14 8C14 8.19891 13.921 8.38968 13.7803 8.53033C13.6397 8.67098 13.4489 8.75 13.25 8.75H2.75C2.55109 8.75 2.36032 8.67098 2.21967 8.53033C2.07902 8.38968 2 8.19891 2 8ZM2 12.25C2 12.0511 2.07902 11.8603 2.21967 11.7197C2.36032 11.579 2.55109 11.5 2.75 11.5H13.25C13.4489 11.5 13.6397 11.579 13.7803 11.7197C13.921 11.8603 14 12.0511 14 12.25C14 12.4489 13.921 12.6397 13.7803 12.7803C13.6397 12.921 13.4489 13 13.25 13H2.75C2.55109 13 2.36032 12.921 2.21967 12.7803C2.07902 12.6397 2 12.4489 2 12.25Z" />
</svg>
