<svg xmlns="http://www.w3.org/2000/svg" fill="none" viewBox="0 0 32 64"><path fill="#1F1E24" fill-rule="evenodd" d="M31.4 17v-.6h.1l.2.1v7.3l-.2.1-.1-.3V17Zm-31 4.5v-.6H.2a.1.1 0 0 0-.2.1v4.5l.2.1.1-.3v-3.8Zm0-6v-.7H.2a.1.1 0 0 0-.2.2v4.4l.2.2.1-.3v-3.8Zm0-4.7v-.6H.2a.1.1 0 0 0-.2.2v2.1l.2.2.1-.3v-1.6Z" clip-rule="evenodd"/><path fill="#1F1E24" fill-rule="evenodd" d="M26 0c3.6 0 5.5 2 5.5 5.7v52.8c0 3.5-2.3 5.4-5.9 5.4H6.1C2.3 64 .2 61.5.3 58.4V5.7C.3 2.1 2.3 0 6 0h20Z" clip-rule="evenodd"/><path fill="#060606" stroke="#000" stroke-width=".5" d="M25.6.5C29.3.5 31 2.4 31 6.1v52.3c0 3.3-2.2 5-5.6 5h-19c-3.4 0-5.6-1.9-5.6-5V6.2C.8 2.4 2.7.5 6.3.5h19.3Z"/><circle cx="19" cy="2.5" r=".3" fill="#003472" transform="rotate(-74 19 2.5)"/><path fill="#111" fill-rule="evenodd" d="M8 1.7c.3 0 .4.1.4.3v.3c0 .9.8 1.7 1.6 1.7h12c.9 0 1.6-.8 1.6-1.7V2a.4.4 0 0 1 .4-.3h3c1.6 0 3 1.7 3 3.3v54c0 1.7-1.5 3.3-3.5 3.3H5.4C3.2 62.3 2 61 2 59.1V5c0-1.6 1.4-3.3 3-3.3h3Z" clip-rule="evenodd"/></svg>
