<svg width="16" height="16" viewBox="0 0 16 16" fill="currentColor" xmlns="http://www.w3.org/2000/svg">
<path fill-rule="evenodd" clip-rule="evenodd" d="M2.875 13.6875V2.3125H2.65625C2.4822 2.3125 2.31528 2.24336 2.19221 2.12029C2.06914 1.99722 2 1.8303 2 1.65625C2 1.4822 2.06914 1.31528 2.19221 1.19221C2.31528 1.06914 2.4822 1 2.65625 1H13.3438C13.5178 1 13.6847 1.06914 13.8078 1.19221C13.9309 1.31528 14 1.4822 14 1.65625C14 1.8303 13.9309 1.99722 13.8078 2.12029C13.6847 2.24336 13.5178 2.3125 13.3438 2.3125H13.125V13.6875H13.3438C13.5178 13.6875 13.6847 13.7566 13.8078 13.8797C13.9309 14.0028 14 14.1697 14 14.3438C14 14.5178 13.9309 14.6847 13.8078 14.8078C13.6847 14.9309 13.5178 15 13.3438 15H10.4023C10.2283 15 10.0614 14.9309 9.9383 14.8078C9.81523 14.6847 9.74609 14.5178 9.74609 14.3438V12.1562C9.74609 11.9822 9.67695 11.8153 9.55388 11.6922C9.43081 11.5691 9.26389 11.5 9.08984 11.5H6.90234C6.7283 11.5 6.56138 11.5691 6.43831 11.6922C6.31523 11.8153 6.24609 11.9822 6.24609 12.1562V14.3438C6.24609 14.5178 6.17695 14.6847 6.05388 14.8078C5.93081 14.9309 5.76389 15 5.58984 15H2.65625C2.4822 15 2.31528 14.9309 2.19221 14.8078C2.06914 14.6847 2 14.5178 2 14.3438C2 14.1697 2.06914 14.0028 2.19221 13.8797C2.31528 13.7566 2.4822 13.6875 2.65625 13.6875H2.875ZM5.37109 4.0625C5.37109 3.94647 5.41719 3.83519 5.49923 3.75314C5.58128 3.67109 5.69256 3.625 5.80859 3.625H6.68359C6.79963 3.625 6.91091 3.67109 6.99295 3.75314C7.075 3.83519 7.12109 3.94647 7.12109 4.0625V4.9375C7.12109 5.05353 7.075 5.16481 6.99295 5.24686C6.91091 5.32891 6.79963 5.375 6.68359 5.375H5.80859C5.69256 5.375 5.58128 5.32891 5.49923 5.24686C5.41719 5.16481 5.37109 5.05353 5.37109 4.9375V4.0625ZM5.80859 7.125C5.69256 7.125 5.58128 7.17109 5.49923 7.25314C5.41719 7.33519 5.37109 7.44647 5.37109 7.5625V8.4375C5.37109 8.55353 5.41719 8.66481 5.49923 8.74686C5.58128 8.82891 5.69256 8.875 5.80859 8.875H6.68359C6.79963 8.875 6.91091 8.82891 6.99295 8.74686C7.075 8.66481 7.12109 8.55353 7.12109 8.4375V7.5625C7.12109 7.44647 7.075 7.33519 6.99295 7.25314C6.91091 7.17109 6.79963 7.125 6.68359 7.125H5.80859ZM8.87109 4.0625C8.87109 3.94647 8.91719 3.83519 8.99923 3.75314C9.08128 3.67109 9.19256 3.625 9.30859 3.625H10.1836C10.2996 3.625 10.4109 3.67109 10.493 3.75314C10.575 3.83519 10.6211 3.94647 10.6211 4.0625V4.9375C10.6211 5.05353 10.575 5.16481 10.493 5.24686C10.4109 5.32891 10.2996 5.375 10.1836 5.375H9.30859C9.19256 5.375 9.08128 5.32891 8.99923 5.24686C8.91719 5.16481 8.87109 5.05353 8.87109 4.9375V4.0625ZM9.30859 7.125C9.19256 7.125 9.08128 7.17109 8.99923 7.25314C8.91719 7.33519 8.87109 7.44647 8.87109 7.5625V8.4375C8.87109 8.55353 8.91719 8.66481 8.99923 8.74686C9.08128 8.82891 9.19256 8.875 9.30859 8.875H10.1836C10.2996 8.875 10.4109 8.82891 10.493 8.74686C10.575 8.66481 10.6211 8.55353 10.6211 8.4375V7.5625C10.6211 7.44647 10.575 7.33519 10.493 7.25314C10.4109 7.17109 10.2996 7.125 10.1836 7.125H9.30859Z"/>
</svg>
