<svg xmlns="http://www.w3.org/2000/svg" width="16" height="16" viewBox="0 0 16 16" fill="none">
  <path fill-rule="evenodd" clip-rule="evenodd" d="M2 3.75C2 2.7835 2.7835 2 3.75 2H9.25C9.9481 2 10.5507 2.40876 10.8316 3H12.25C13.2165 3 14 3.7835 14 4.75V11.25C14 12.2165 13.2165 13 12.25 13H10.8316C10.5507 13.5912 9.9481 14 9.25 14H3.75C2.7835 14 2 13.2165 2 12.25V3.75ZM11 11.5H12.25C12.3881 11.5 12.5 11.3881 12.5 11.25V4.75C12.5 4.61193 12.3881 4.5 12.25 4.5H11V11.5ZM3.75 3.5C3.61193 3.5 3.5 3.61193 3.5 3.75V12.25C3.5 12.3881 3.61193 12.5 3.75 12.5H9.25C9.38807 12.5 9.5 12.3881 9.5 12.25V3.75C9.5 3.61193 9.38807 3.5 9.25 3.5H3.75ZM5 7.25C5 6.83579 5.33579 6.5 5.75 6.5H7.25C7.66421 6.5 8 6.83579 8 7.25C8 7.66421 7.66421 8 7.25 8H5.75C5.33579 8 5 7.66421 5 7.25ZM5 10.25C5 9.83579 5.33579 9.5 5.75 9.5H7.25C7.66421 9.5 8 9.83579 8 10.25C8 10.6642 7.66421 11 7.25 11H5.75C5.33579 11 5 10.6642 5 10.25Z" fill="currentColor"/>
</svg>