<svg xmlns="http://www.w3.org/2000/svg" width="16" height="16" viewBox="0 0 16 16" fill="none">
  <path fill-rule="evenodd" clip-rule="evenodd" d="M7.99999 3.5C5.80865 3.5 3.98169 5.06708 3.58154 7.14202C3.50311 7.54874 3.10981 7.81487 2.70309 7.73643C2.29637 7.658 2.03024 7.2647 2.10868 6.85798C2.64239 4.09048 5.07625 2 7.99999 2C9.71954 2 11.2045 2.95589 12.2005 3.80996C12.3045 3.89918 12.4045 3.98831 12.5 4.07645V2.75C12.5 2.33579 12.8358 2 13.25 2C13.6642 2 14 2.33579 14 2.75V6.00862C14 6.42283 13.6642 6.75862 13.25 6.75862H9.99137C9.57715 6.75862 9.24137 6.42283 9.24137 6.00862C9.24137 5.59441 9.57715 5.25862 9.99137 5.25862H11.5682C11.4601 5.15649 11.3452 5.0525 11.2241 4.94866C10.32 4.17342 9.17993 3.5 7.99999 3.5ZM13.392 8.26357C13.7987 8.34201 14.0649 8.7353 13.9864 9.14202C13.4527 11.9095 11.0189 14 8.09511 14C6.37556 14 4.89062 13.0441 3.8946 12.19C3.79055 12.1008 3.69064 12.0117 3.59511 11.9235V13.25C3.59511 13.6642 3.25932 14 2.84511 14C2.4309 14 2.09511 13.6642 2.09511 13.25V9.99138C2.09511 9.57717 2.4309 9.24138 2.84511 9.24138H6.10373C6.51794 9.24138 6.85373 9.57717 6.85373 9.99138C6.85373 10.4056 6.51794 10.7414 6.10373 10.7414H4.52688C4.635 10.8435 4.7499 10.9475 4.871 11.0513C5.7751 11.8266 6.91517 12.5 8.09511 12.5C10.2865 12.5 12.1134 10.9329 12.5136 8.85798C12.592 8.45126 12.9853 8.18513 13.392 8.26357Z" fill="currentColor"/>
</svg>