<svg width="16" height="16" viewBox="0 0 16 16" fill="none" xmlns="http://www.w3.org/2000/svg">
<path d="M3.01562 4.36458C3.01562 3.6282 3.61258 3.03125 4.34896 3.03125L11.6667 3.03125C12.4031 3.03125 13 3.6282 13 4.36458V9.49998C13 10.2364 12.4031 10.8333 11.6667 10.8333H9.74996L7.99996 13.0156L6.24996 10.8333L4.34896 10.8333C3.61258 10.8333 3.01562 10.2364 3.01562 9.49998V4.36458Z" stroke="currentColor" stroke-width="1.5" stroke-linecap="round" stroke-linejoin="round"/>
<path d="M5.8147 7.02344C5.8147 7.23051 5.6468 7.39844 5.4397 7.39844C5.23259 7.39844 5.0647 7.23051 5.0647 7.02344C5.0647 6.81636 5.23259 6.64844 5.4397 6.64844C5.6468 6.64844 5.8147 6.81636 5.8147 7.02344Z" fill="currentColor"/>
<path d="M8.375 7.02344C8.375 7.23051 8.20708 7.39844 8 7.39844C7.79292 7.39844 7.625 7.23051 7.625 7.02344C7.625 6.81636 7.79292 6.64844 8 6.64844C8.20708 6.64844 8.375 6.81636 8.375 7.02344Z" fill="currentColor"/>
<path d="M11.1198 7.02344C11.1198 7.23051 10.9518 7.39844 10.7448 7.39844C10.5377 7.39844 10.3698 7.23051 10.3698 7.02344C10.3698 6.81636 10.5377 6.64844 10.7448 6.64844C10.9518 6.64844 11.1198 6.81636 11.1198 7.02344Z" fill="currentColor"/>
<path d="M5.8147 7.02344C5.8147 7.23051 5.6468 7.39844 5.4397 7.39844C5.23259 7.39844 5.0647 7.23051 5.0647 7.02344C5.0647 6.81636 5.23259 6.64844 5.4397 6.64844C5.6468 6.64844 5.8147 6.81636 5.8147 7.02344Z" stroke="currentColor" stroke-linecap="round" stroke-linejoin="round"/>
<path d="M8.375 7.02344C8.375 7.23051 8.20708 7.39844 8 7.39844C7.79292 7.39844 7.625 7.23051 7.625 7.02344C7.625 6.81636 7.79292 6.64844 8 6.64844C8.20708 6.64844 8.375 6.81636 8.375 7.02344Z" stroke="currentColor" stroke-linecap="round" stroke-linejoin="round"/>
<path d="M11.1198 7.02344C11.1198 7.23051 10.9518 7.39844 10.7448 7.39844C10.5377 7.39844 10.3698 7.23051 10.3698 7.02344C10.3698 6.81636 10.5377 6.64844 10.7448 6.64844C10.9518 6.64844 11.1198 6.81636 11.1198 7.02344Z" stroke="currentColor" stroke-linecap="round" stroke-linejoin="round"/>
</svg>
