<svg width="16" height="16" viewBox="0 0 16 16" fill="none" xmlns="http://www.w3.org/2000/svg">
<path d="M8 3.5C8.41421 3.5 8.75 3.16421 8.75 2.75C8.75 2.33579 8.41421 2 8 2C7.58579 2 7.25 2.33579 7.25 2.75C7.25 3.16421 7.58579 3.5 8 3.5Z" fill="currentColor"/>
<path d="M13.25 8.75C13.6642 8.75 14 8.41421 14 8C14 7.58579 13.6642 7.25 13.25 7.25C12.8358 7.25 12.5 7.58579 12.5 8C12.5 8.41421 12.8358 8.75 13.25 8.75Z" fill="currentColor"/>
<path d="M2.75 8.75C3.16421 8.75 3.5 8.41421 3.5 8C3.5 7.58579 3.16421 7.25 2.75 7.25C2.33579 7.25 2 7.58579 2 8C2 8.41421 2.33579 8.75 2.75 8.75Z" fill="currentColor"/>
<path d="M4.29999 5.04001C4.7142 5.04001 5.04999 4.70422 5.04999 4.29001C5.04999 3.8758 4.7142 3.54001 4.29999 3.54001C3.88578 3.54001 3.54999 3.8758 3.54999 4.29001C3.54999 4.70422 3.88578 5.04001 4.29999 5.04001Z" fill="currentColor"/>
<path d="M11.7 5.04001C12.1142 5.04001 12.45 4.70422 12.45 4.29001C12.45 3.8758 12.1142 3.54001 11.7 3.54001C11.2858 3.54001 10.95 3.8758 10.95 4.29001C10.95 4.70422 11.2858 5.04001 11.7 5.04001Z" fill="currentColor"/>
<path d="M4.29999 12.47C4.7142 12.47 5.04999 12.1342 5.04999 11.72C5.04999 11.3058 4.7142 10.97 4.29999 10.97C3.88578 10.97 3.54999 11.3058 3.54999 11.72C3.54999 12.1342 3.88578 12.47 4.29999 12.47Z" fill="currentColor"/>
<path d="M11.7 12.47C12.1142 12.47 12.45 12.1342 12.45 11.72C12.45 11.3058 12.1142 10.97 11.7 10.97C11.2858 10.97 10.95 11.3058 10.95 11.72C10.95 12.1342 11.2858 12.47 11.7 12.47Z" fill="currentColor"/>
<path d="M8 14C8.41421 14 8.75 13.6642 8.75 13.25C8.75 12.8358 8.41421 12.5 8 12.5C7.58579 12.5 7.25 12.8358 7.25 13.25C7.25 13.6642 7.58579 14 8 14Z" fill="currentColor"/>
<path d="M12.1065 11.3775C13.913 9.1095 13.539 5.8065 11.271 4" stroke="currentColor" stroke-width="1.5" stroke-linecap="round"/>
</svg>
