<svg width="16" height="16" viewBox="0 0 16 16" fill="none" xmlns="http://www.w3.org/2000/svg">
<path d="M8 13.25C10.8995 13.25 13.25 10.8995 13.25 8C13.25 5.10051 10.8995 2.75 8 2.75C5.10051 2.75 2.75 5.10051 2.75 8C2.75 10.8995 5.10051 13.25 8 13.25Z" stroke="#2F3037" stroke-width="1.5" stroke-linecap="round" stroke-linejoin="round"/>
<path d="M5.72241 8C5.72241 8.20707 5.55452 8.375 5.34741 8.375C5.14031 8.375 4.97241 8.20707 4.97241 8C4.97241 7.79293 5.14031 7.625 5.34741 7.625C5.55452 7.625 5.72241 7.79293 5.72241 8Z" fill="#2F3037"/>
<path d="M8.28271 8C8.28271 8.20707 8.11479 8.375 7.90771 8.375C7.70064 8.375 7.53271 8.20707 7.53271 8C7.53271 7.79293 7.70064 7.625 7.90771 7.625C8.11479 7.625 8.28271 7.79293 8.28271 8Z" fill="#2F3037"/>
<path d="M11.0275 8C11.0275 8.20707 10.8595 8.375 10.6525 8.375C10.4454 8.375 10.2775 8.20707 10.2775 8C10.2775 7.79293 10.4454 7.625 10.6525 7.625C10.8595 7.625 11.0275 7.79293 11.0275 8Z" fill="#2F3037"/>
<path d="M5.72241 8C5.72241 8.20707 5.55452 8.375 5.34741 8.375C5.14031 8.375 4.97241 8.20707 4.97241 8C4.97241 7.79293 5.14031 7.625 5.34741 7.625C5.55452 7.625 5.72241 7.79293 5.72241 8Z" stroke="#2F3037" stroke-linecap="round" stroke-linejoin="round"/>
<path d="M8.28271 8C8.28271 8.20707 8.11479 8.375 7.90771 8.375C7.70064 8.375 7.53271 8.20707 7.53271 8C7.53271 7.79293 7.70064 7.625 7.90771 7.625C8.11479 7.625 8.28271 7.79293 8.28271 8Z" stroke="#2F3037" stroke-linecap="round" stroke-linejoin="round"/>
<path d="M11.0275 8C11.0275 8.20707 10.8595 8.375 10.6525 8.375C10.4454 8.375 10.2775 8.20707 10.2775 8C10.2775 7.79293 10.4454 7.625 10.6525 7.625C10.8595 7.625 11.0275 7.79293 11.0275 8Z" stroke="#2F3037" stroke-linecap="round" stroke-linejoin="round"/>
</svg>
