<svg width="16" height="16" viewBox="0 0 16 16" fill="currentColor" xmlns="http://www.w3.org/2000/svg">
<path fill-rule="evenodd" clip-rule="evenodd" d="M13.7477 2.90931C13.7932 2.93056 13.8351 2.9586 13.8716 2.99257C13.9604 3.07476 14.0114 3.18563 13.9978 3.30253V7.35731C13.9978 8.83425 13.5751 10.2669 12.7705 11.5036C11.7816 13.0242 8.99299 14.5422 8.20783 14.949C8.07667 15.017 7.92342 15.017 7.79226 14.9491C7.00665 14.5424 4.21621 13.0244 3.22732 11.5036C2.42639 10.267 2 8.8343 2 7.35731V3.30253C2 3.18867 2.05138 3.07476 2.13972 2.99257C2.17984 2.9554 2.22626 2.92533 2.27674 2.90354C2.33759 2.8771 2.40475 2.86285 2.47416 2.86285H2.50121C4.66288 2.86285 6.63345 2.2082 7.64938 1.14868C7.69716 1.09933 7.7544 1.0611 7.8175 1.03578C7.87565 1.01239 7.93875 1 8.0041 1C8.14067 1 8.27003 1.05383 8.35882 1.14868C9.37476 2.20499 11.3489 2.86285 13.507 2.86285H13.534C13.6102 2.86285 13.6828 2.87919 13.7477 2.90931ZM11.0531 6.00658C11.3329 5.70113 11.312 5.22671 11.0066 4.94694C10.7011 4.66716 10.2267 4.68798 9.94694 4.99343C9.04676 5.97624 8.58413 6.61666 7.93394 7.78007C7.71571 8.17055 7.49232 8.65646 7.30762 9.08488L6.0665 7.65444C5.79505 7.34158 5.32136 7.30801 5.0085 7.57946C4.69563 7.85092 4.66206 8.3246 4.93352 8.63747L6.976 10.9915C7.14921 11.1911 7.41469 11.2849 7.67483 11.2382C7.93495 11.1916 8.15156 11.0109 8.24465 10.7636L8.24565 10.7609L8.24998 10.7495L8.26753 10.7036C8.28305 10.6631 8.30594 10.6039 8.33502 10.5299C8.39325 10.3816 8.47593 10.1749 8.57346 9.94163C8.77164 9.4677 9.01976 8.91188 9.24333 8.51184C9.83688 7.44978 10.2313 6.90378 11.0531 6.00658Z"/>
</svg>
