<svg width="16" height="16" viewBox="0 0 16 16" fill="none" xmlns="http://www.w3.org/2000/svg">
<path d="M10.4019 6C10.9101 5.69378 11.25 5.13658 11.25 4.5C11.25 3.86342 10.9101 3.30622 10.4019 3M9.5 13.25H12.4489C12.9612 13.25 13.3417 12.7993 13.2306 12.3242L13.0225 11.4345C12.8385 10.648 12.3786 9.97519 11.7524 9.49989M8.25 4.5C8.25 5.4665 7.4665 6.25 6.5 6.25C5.5335 6.25 4.75 5.4665 4.75 4.5C4.75 3.5335 5.5335 2.75 6.5 2.75C7.4665 2.75 8.25 3.5335 8.25 4.5ZM2.76939 12.3242L2.9775 11.4345C3.34439 9.86599 4.80874 8.75 6.5 8.75C8.19126 8.75 9.65561 9.86599 10.0225 11.4345L10.2306 12.3242C10.3417 12.7993 9.96121 13.25 9.44895 13.25H3.55105C3.03879 13.25 2.65827 12.7993 2.76939 12.3242Z" stroke="currentColor" stroke-width="1.5" stroke-linecap="round" stroke-linejoin="round"/>
</svg>
