<svg width="16" height="16" viewBox="0 0 16 16" fill="currentColor" xmlns="http://www.w3.org/2000/svg">
<path d="M9.16667 5.03472C9.16667 6.53816 7.94789 8.30139 6.44444 8.30139C4.941 8.30139 3.72222 6.53816 3.72222 5.03472C3.72222 3.53128 4.941 2.3125 6.44444 2.3125C7.94789 2.3125 9.16667 3.53128 9.16667 5.03472Z" fillRule=""/>
<path d="M1 12.7358C1 11.9386 1.11988 10.9323 1.79613 10.093C2.35833 9.39516 3.02538 8.97688 3.72222 8.84583C4.78769 8.64546 5.3603 9.39028 6.44444 9.39028C7.52859 9.39028 8.1012 8.64546 9.16667 8.84583C9.86351 8.97688 10.5306 9.39516 11.0928 10.093C11.769 10.9323 11.8889 11.9386 11.8889 12.7358C11.8889 13.2614 11.4638 13.6875 10.9382 13.6875C9.79644 13.6875 7.8586 13.6875 6.44444 13.6875C5.03029 13.6875 3.09245 13.6875 1.95071 13.6875C1.42508 13.6875 1 13.2614 1 12.7358Z" fill="currentColor"/>
<path d="M8.98158 7.71154C8.89418 7.82309 8.80009 7.93184 8.69971 8.03613C8.88933 8.02845 9.09266 8.0405 9.31042 8.08145C9.51898 8.12068 9.72002 8.18627 9.9109 8.26848C11.2464 8.02056 12.2778 6.41773 12.2778 5.03472C12.2778 3.53128 11.059 2.3125 9.55556 2.3125C9.28507 2.3125 9.02381 2.35195 8.77719 2.42541C9.49357 3.0663 9.94444 3.99786 9.94444 5.03472C9.94444 5.97984 9.56879 6.96209 8.98158 7.71154Z" fill="currentColor"/>
<path d="M12.3818 13.6875C12.5619 13.4144 12.6667 13.0872 12.6667 12.7358C12.6667 11.7943 12.5146 10.5269 11.6484 9.54876C11.4373 9.31033 11.2706 9.17756 11.0503 8.99439C11.4207 8.85635 11.7996 8.75591 12.2778 8.84583C12.9746 8.97688 13.6417 9.39516 14.2039 10.093C14.8801 10.9323 15 11.9386 15 12.7358C15 13.2614 14.5749 13.6875 14.0493 13.6875H12.3818Z" fill="currentColor"/>
</svg>
