<svg xmlns="http://www.w3.org/2000/svg" width="16" height="16" viewBox="0 0 16 16" fill="currentColor">
  <path d="M13.1487 5.77308C13.0703 5.83608 11.6867 6.64397 11.6867 8.44037C11.6867 10.5182 13.4473 11.2533 13.5 11.2715C13.4919 11.3162 13.2203 12.2781 12.5717 13.2583C11.9934 14.1207 11.3895 14.9818 10.4706 14.9818C9.55182 14.9818 9.31539 14.4287 8.25468 14.4287C7.22104 14.4287 6.85352 15 6.01309 15C5.17264 15 4.58623 14.2019 3.91198 13.2218C3.131 12.0709 2.5 10.2829 2.5 8.58597C2.5 5.86409 4.2079 4.42054 5.88878 4.42054C6.78191 4.42054 7.52641 5.02821 8.08715 5.02821C8.62081 5.02821 9.4532 4.38414 10.4693 4.38414C10.8544 4.38414 12.238 4.42054 13.1487 5.77308ZM9.98693 3.23182C10.4071 2.71517 10.7044 1.9983 10.7044 1.28143C10.7044 1.18202 10.6963 1.08121 10.6787 1C9.99503 1.0266 9.18157 1.47185 8.69113 2.0613C8.30602 2.51495 7.94663 3.23182 7.94663 3.95849C7.94663 4.06771 7.96419 4.17691 7.97231 4.21192C8.01554 4.22032 8.0858 4.23012 8.15605 4.23012C8.7695 4.23012 9.54101 3.80448 9.98693 3.23182Z" />
</svg>