<svg width="14" height="14" viewBox="0 0 14 14" fill="none" xmlns="http://www.w3.org/2000/svg"><g id="12px/success-filled"><path id="icon" d="M7 13.5C10.5899 13.5 13.5 10.5899 13.5 7C13.5 3.41015 10.5899 0.5 7 0.5C3.41015 0.5 0.5 3.41015 0.5 7C0.5 10.5899 3.41015 13.5 7 13.5Z" fill="currentColor" stroke="white"/><path id="icon_2" d="M9.80308 5.25658C10.0829 4.95113 10.062 4.47671 9.75659 4.19694C9.45113 3.91716 8.97672 3.93798 8.69694 4.24343C7.88285 5.13224 7.46308 5.71334 6.87508 6.76547C6.69539 7.08698 6.51235 7.47874 6.35548 7.83732L5.3165 6.63985C5.04505 6.32698 4.57136 6.29341 4.2585 6.56487C3.94563 6.83632 3.91206 7.31001 4.18352 7.62287L6.02176 9.74152C6.19496 9.94114 6.46044 10.0349 6.72058 9.98824C6.98071 9.94161 7.19709 9.76152 7.29018 9.51419L7.29124 9.51137L7.29509 9.50121L7.3108 9.46008C7.3247 9.42386 7.34524 9.37073 7.37133 9.30429C7.42358 9.17126 7.49779 8.98572 7.58531 8.7764C7.76347 8.35034 7.98544 7.85338 8.18447 7.49725C8.71583 6.54646 9.0674 6.05978 9.80308 5.25658Z" fill="white"/></g></svg>
