<svg width="12" height="12" viewBox="0 0 12 12" fill="none" xmlns="http://www.w3.org/2000/svg">
<path fill-rule="evenodd" clip-rule="evenodd" d="M3.12895 0.329528C3.26847 0.123449 3.50113 0 3.75 0H8.25C8.49887 0 8.73153 0.123449 8.87105 0.329528C8.90731 0.38309 8.93606 0.440421 8.95712 0.5H9.25C10.7688 0.5 12 1.73122 12 3.25V9.25C12 10.7688 10.7688 12 9.25 12H2.75C1.23122 12 0 10.7688 0 9.25V3.25C0 1.73122 1.23122 0.5 2.75 0.5H3.04288C3.06394 0.440421 3.09269 0.38309 3.12895 0.329528ZM3.44223 2H2.75C2.05964 2 1.5 2.55964 1.5 3.25V9.25C1.5 9.94036 2.05964 10.5 2.75 10.5H9.25C9.94036 10.5 10.5 9.94036 10.5 9.25V3.25C10.5 2.55964 9.94036 2 9.25 2H8.55777L8.41059 2.36795C8.01631 3.35365 7.06164 4 6 4C4.93836 4 3.98369 3.35365 3.5894 2.36795L3.44223 2ZM7.14223 1.5H4.85777L4.98212 1.81086C5.14861 2.22708 5.55172 2.5 6 2.5C6.44828 2.5 6.85139 2.22708 7.01788 1.81086L7.14223 1.5Z" fill="currentColor"/>
</svg>
