<svg width="16" height="16" viewBox="0 0 16 16" fill="currentColor" xmlns="http://www.w3.org/2000/svg"><g><path fill-rule="evenodd" clip-rule="evenodd" d="M6.55901 2.536C6.5892 2.38493 6.67079 2.24897 6.7899 2.15126C6.90901 2.05354 7.05828 2.00009 7.21234 2H8.78567C8.93974 2.00009 9.08901 2.05354 9.20812 2.15126C9.32722 2.24897 9.40881 2.38493 9.43901 2.536L9.65967 3.63733C10.1253 3.81479 10.5595 4.06575 10.9457 4.38067L12.011 4.02067C12.1569 3.97135 12.3154 3.97408 12.4596 4.02841C12.6037 4.08273 12.7246 4.1853 12.8017 4.31867L13.5883 5.68133C13.6654 5.81473 13.694 5.97071 13.669 6.12276C13.6441 6.2748 13.5673 6.41352 13.4517 6.51533L12.607 7.25733C12.6858 7.74931 12.6858 8.25069 12.607 8.74267L13.4517 9.48467C13.5673 9.58635 13.6441 9.72491 13.6691 9.87681C13.6942 10.0287 13.6659 10.1846 13.589 10.318L12.8023 11.6813C12.7252 11.8148 12.6042 11.9175 12.46 11.9718C12.3157 12.0262 12.157 12.0288 12.011 11.9793L10.9457 11.6193C10.5595 11.9342 10.1253 12.1852 9.65967 12.3627L9.43967 13.464C9.40948 13.6151 9.32789 13.751 9.20878 13.8487C9.08968 13.9465 8.9404 13.9999 8.78634 14H7.21234C7.05828 13.9999 6.90901 13.9465 6.7899 13.8487C6.67079 13.751 6.5892 13.6151 6.55901 13.464L6.33834 12.3627C5.8727 12.1852 5.43853 11.9342 5.05234 11.6193L3.98701 11.9793C3.84108 12.0287 3.68257 12.0259 3.53843 11.9716C3.39429 11.9173 3.27341 11.8147 3.19634 11.6813L2.40967 10.3187C2.33257 10.1853 2.30405 10.0293 2.32897 9.87724C2.35389 9.7252 2.4307 9.58648 2.54634 9.48467L3.39101 8.742C3.31235 8.25024 3.31235 7.7491 3.39101 7.25733L2.54634 6.51533C2.43075 6.41365 2.35391 6.27509 2.32888 6.12319C2.30385 5.97128 2.33216 5.8154 2.40901 5.682L3.19567 4.31867C3.27277 4.18515 3.39377 4.08249 3.53805 4.02815C3.68233 3.97382 3.84099 3.97117 3.98701 4.02067L5.05234 4.38067C5.43873 4.06569 5.87314 3.81473 6.33901 3.63733L6.55901 2.536ZM7.99901 10C8.52944 10 9.03815 9.78929 9.41322 9.41421C9.78829 9.03914 9.99901 8.53043 9.99901 8C9.99901 7.46957 9.78829 6.96086 9.41322 6.58579C9.03815 6.21071 8.52944 6 7.99901 6C7.46857 6 6.95987 6.21071 6.58479 6.58579C6.20972 6.96086 5.99901 7.46957 5.99901 8C5.99901 8.53043 6.20972 9.03914 6.58479 9.41421C6.95987 9.78929 7.46857 10 7.99901 10Z"/></g></svg>
