<svg xmlns="http://www.w3.org/2000/svg" viewBox="670.6 72.3 84 76"><path fill="var(--cl-chassis-screen, #6D6D6D)" fill-rule="evenodd" d="M712.5 107.2v-.6h.1l.2.1v7.2a.1.1 0 0 1-.2.2l-.1-.3v-6.6Z" clip-rule="evenodd"/><path fill="var(--cl-chassis-back, #6D6D6D)" fill-rule="evenodd" d="M697.4 100v-.7h-.2a.1.1 0 0 0-.1.2v4.4s0 .2.2.2V100Z" clip-rule="evenodd"/><path fill="var(--cl-chassis-screen, #6D6D6D)" fill-rule="evenodd" d="M697.4 94v-.7h-.2a.1.1 0 0 0-.1.2v4.4s0 .2.2.2V94Z" clip-rule="evenodd"/><path fill="var(--cl-chassis-back, #363636)" d="M722.7 78.6c3.6 0 5.5 2.1 5.5 5.7v52.4c0 3.4-2.3 5.3-5.8 5.3H703c-3.8 0-5.8-2.4-5.7-5.4V84.3c0-3.6 2-5.7 5.6-5.7h19.8Z"/><path fill="var(--cl-chassis-screen, #363636)" stroke="var(--cl-chassis-bottom, black)" stroke-width=".5" d="M722.3 79.2c3.7 0 5.4 1.8 5.4 5.4v52c0 3.2-2.2 5-5.5 5h-19c-3.2 0-5.4-2-5.4-5v-52c0-3.6 1.8-5.4 5.5-5.4h19Z"/><path fill="var(--cl-screen, black)" fill-rule="evenodd" d="M704.9 80.3c.2 0 .3.1.3.4v.2c0 .9.8 1.7 1.6 1.7h11.8c1 0 1.7-.8 1.7-1.7v-.2c0-.3.1-.4.3-.4h3c1.6 0 3 1.7 3 3.3V137c0 1.7-1.5 3.3-3.4 3.3h-21c-2.1 0-3.3-1.3-3.3-3.2V83.6c0-1.6 1.3-3.3 2.9-3.3h3Z" clip-rule="evenodd"/><path fill-rule="evenodd" d="M715.3 81.2a.3.3 0 0 0-.2-.4.3.3 0 1 0-.2.6.3.3 0 0 0 .4-.2Zm-5.1-.2c0 .2 0 .3.2.3h2.9a.3.3 0 0 0 .2-.3.3.3 0 0 0-.2-.2h-2.9a.3.3 0 0 0-.2.2Z" clip-rule="evenodd"/></svg>
