<svg viewBox="569.359 86.341 83.617 48.159" width="83.617" height="48.159" xmlns="http://www.w3.org/2000/svg"><path d="M576.994 89.845c0-1.48.189-2.122.624-2.604.499-.552 1.22-.9 2.804-.9h61.724c1.385 0 1.94.286 2.437.789.482.493.757 1.194.757 2.715v40.993c0 1.391-.202 1.957-.543 2.411a2.724 2.724 0 0 1-2.185 1.096h-62.968c-.844 0-1.6-.385-2.1-.987-.392-.472-.55-1.08-.55-2.52V89.845Z" fill="var(--cl-chassis-back, black)"/><path d="M578.397 132.865h65.54c.305 0 .59-.137.78-.371.17-.203.232-.509.232-1.423V89.848c0-1.296-.19-1.979-.645-2.445-.493-.502-1.019-.673-2.161-.673h-61.721c-1.316 0-2.025.229-2.515.772-.382.425-.525 1.027-.525 2.346v41.223c0 .903.057 1.2.214 1.399.189.246.482.395.801.395Z" fill="var(--cl-chassis-screen, #323232)"/><path fill-rule="evenodd" clip-rule="evenodd" d="M611.167 88.521a.272.272 0 1 0 0-.544.272.272 0 1 0 0 .544Z" stroke="var(--cl-chassis-back1, 'gold')" stroke-width=".25"/><path fill-rule="evenodd" clip-rule="evenodd" d="M569.359 133.252v-.468h83.617v.468s-1.857.643-3.973.86c-1.357.137-3.675.388-8.868.388h-57.433c-4.501 0-8.29-.273-10.072-.468-1.679-.183-3.271-.78-3.271-.78Z" fill="var(--cl-chassis-bottom, #191919)"/><path fill-rule="evenodd" clip-rule="evenodd" d="M579.722 89.455h62.968v39.433h-62.968V89.455Z" fill="var(--cl-screen, #111111)"/></svg>