<svg xmlns="http://www.w3.org/2000/svg" width="16" height="16" fill="currentColor"><path d="M8.563 8.614v1.96c.302-.051.592-.161.853-.324.361-.236.459-.486.459-.656 0-.17-.098-.42-.459-.656a2.348 2.348 0 0 0-.854-.325ZM6.747 6.965c.04.041.087.083.139.123.155.12.345.213.551.272V5.452c-.09.026-.177.059-.262.098a1.508 1.508 0 0 0-.29.175c-.282.219-.385.47-.385.681 0 .138.043.293.152.444.027.038.06.078.095.115Z"/><path fill-rule="evenodd" d="M14 8A6 6 0 1 1 2 8a6 6 0 0 1 12 0ZM8 3.5a.563.563 0 0 1 .563.563V4.3c.45.075.875.259 1.24.534.319.248.557.555.693.9a.562.562 0 0 1-1.046.413 1.012 1.012 0 0 0-.335-.423 1.64 1.64 0 0 0-.553-.272v2.023c.524.07 1.038.24 1.47.522.59.386.967.953.967 1.598 0 .644-.378 1.211-.967 1.597a3.547 3.547 0 0 1-1.47.522v.224a.563.563 0 0 1-1.125 0v-.225a3.537 3.537 0 0 1-1.469-.521c-.361-.236-.643-.538-.808-.891a.563.563 0 1 1 1.019-.477c.06.13.184.282.405.427.235.154.53.264.854.324V8.514a2.836 2.836 0 0 1-1.24-.535c-.523-.404-.823-.968-.823-1.573 0-.603.3-1.168.823-1.572.364-.275.79-.459 1.24-.534v-.237A.563.563 0 0 1 8 3.5Z" clip-rule="evenodd"/></svg>