<svg width="24" height="17" viewBox="0 0 24 17" fill="none" xmlns="http://www.w3.org/2000/svg">
<path d="M12 10.8996C13.3255 10.8996 14.4 9.82509 14.4 8.49961C14.4 7.17413 13.3255 6.09961 12 6.09961C10.6745 6.09961 9.60001 7.17413 9.60001 8.49961C9.60001 9.82509 10.6745 10.8996 12 10.8996Z" fill="white"/>
<path fill-rule="evenodd" clip-rule="evenodd" d="M0.549316 8.49966C2.07842 3.6311 6.62678 0.0996094 12 0.0996094C17.3731 0.0996094 21.9215 3.63106 23.4506 8.49957C21.9215 13.3681 17.3731 16.8996 11.9999 16.8996C6.62679 16.8996 2.07845 13.3682 0.549316 8.49966ZM16.8 8.49961C16.8 11.1506 14.651 13.2996 12 13.2996C9.34904 13.2996 7.20001 11.1506 7.20001 8.49961C7.20001 5.84864 9.34904 3.69961 12 3.69961C14.651 3.69961 16.8 5.84864 16.8 8.49961Z" fill="white"/>
</svg>
