<svg xmlns="http://www.w3.org/2000/svg" fill="none" viewBox="0 0 16 16"><path fill="currentColor" d="M10.068 3.668a1.6 1.6 0 0 1 2.263 2.263l-2.4 2.4a1.6 1.6 0 0 1-2.263 0 .8.8 0 1 0-1.131 1.131 3.2 3.2 0 0 0 4.525 0l2.4-2.4a3.2 3.2 0 1 0-4.525-4.525l-1.2 1.2a.8.8 0 1 0 1.131 1.131l1.2-1.2Z"/><path fill="currentColor" d="M6.068 7.668a1.6 1.6 0 0 1 2.263 0 .8.8 0 1 0 1.131-1.131 3.2 3.2 0 0 0-4.525 0l-2.4 2.4a3.2 3.2 0 0 0 4.525 4.525l1.2-1.2a.8.8 0 0 0-1.131-1.131l-1.2 1.2a1.6 1.6 0 0 1-2.263-2.263l2.4-2.4Z"/></svg>
