<svg xmlns="http://www.w3.org/2000/svg" width="16" height="16" fill="none"><path fill="currentColor" fill-rule="evenodd" d="M8 3.5c-.2 0-.398.013-.59.038a.75.75 0 0 1-.196-1.487 6.05 6.05 0 0 1 1.572 0 .75.75 0 0 1-.195 1.487A4.55 4.55 0 0 0 8 3.5Zm-2.385-.238a.75.75 0 0 1-.186 1.044c-.287.2-.55.434-.783.694a.75.75 0 1 1-1.118-1 6.03 6.03 0 0 1 1.043-.924.75.75 0 0 1 1.044.186Zm4.77 0a.75.75 0 0 1 1.044-.186c.383.267.733.577 1.043.924a.75.75 0 1 1-1.118 1 4.528 4.528 0 0 0-.783-.694.75.75 0 0 1-.186-1.044ZM8 6.5a1 1 0 0 0-1 1V8h2v-.5a1 1 0 0 0-1-1ZM10.5 8v-.5a2.5 2.5 0 0 0-5 0V8h-.75a.75.75 0 0 0-.75.75v3.5c0 .966.783 1.75 1.75 1.75h4.5A1.75 1.75 0 0 0 12 12.25v-3.5a.75.75 0 0 0-.75-.75h-.75Zm0 1.5h-5v2.75c0 .138.112.25.25.25h4.5a.25.25 0 0 0 .25-.25V9.5ZM3.181 5.781a.75.75 0 0 1 .505.933 4.477 4.477 0 0 0-.166.857.75.75 0 1 1-1.493-.142c.037-.393.112-.775.222-1.143a.75.75 0 0 1 .932-.505Zm9.638 0a.75.75 0 0 1 .932.505c.11.368.185.75.222 1.143a.75.75 0 0 1-1.493.142 4.478 4.478 0 0 0-.166-.857.75.75 0 0 1 .505-.933Z" clip-rule="evenodd"/></svg>
