<svg width="50" height="14" viewBox="0 0 50 14" fill="none" xmlns="http://www.w3.org/2000/svg">
<ellipse cx="7.88923" cy="7" rx="2.18749" ry="2.1875" fill="currentColor"/>
<path d="M11.8306 12.1792C12.0167 12.3653 11.998 12.6734 11.7793 12.8199C10.6667 13.5652 9.32842 13.9999 7.88866 13.9999C6.4489 13.9999 5.11066 13.5652 3.99802 12.8199C3.77934 12.6734 3.76065 12.3653 3.94676 12.1792L5.54536 10.5806C5.68984 10.4361 5.91398 10.4133 6.09583 10.5064C6.63356 10.7819 7.24296 10.9374 7.88866 10.9374C8.53436 10.9374 9.14376 10.7819 9.68148 10.5064C9.86333 10.4133 10.0875 10.4361 10.232 10.5806L11.8306 12.1792Z" fill="currentColor"/>
<path opacity="0.5" d="M11.7795 1.17994C11.9982 1.32641 12.0168 1.63454 11.8307 1.82065L10.2321 3.41926C10.0877 3.56374 9.86352 3.58656 9.68167 3.4934C9.14394 3.21792 8.53455 3.0625 7.88885 3.0625C5.71424 3.0625 3.95137 4.82538 3.95137 7C3.95137 7.6457 4.10679 8.2551 4.38227 8.79283C4.47543 8.97468 4.45261 9.19882 4.30813 9.3433L2.70953 10.9419C2.52342 11.128 2.21529 11.1093 2.06882 10.8906C1.32355 9.778 0.888885 8.43976 0.888885 7C0.888885 3.13401 4.02288 0 7.88885 0C9.32861 0 10.6668 0.434669 11.7795 1.17994Z" fill="currentColor"/>
<path fill-rule="evenodd" clip-rule="evenodd" d="M23.7485 1.42188C23.7485 1.36147 23.7975 1.3125 23.8579 1.3125H25.4985C25.5589 1.3125 25.6079 1.36147 25.6079 1.42188V12.5781C25.6079 12.6385 25.5589 12.6875 25.4985 12.6875H23.8579C23.7975 12.6875 23.7485 12.6385 23.7485 12.5781V1.42188ZM21.4332 10.3212C21.3896 10.2835 21.3244 10.2864 21.2826 10.3259C21.0269 10.5672 20.7274 10.7603 20.3992 10.895C20.0393 11.0428 19.6523 11.1172 19.2619 11.1137C18.9322 11.1235 18.604 11.0671 18.2975 10.948C17.991 10.8289 17.7126 10.6497 17.4795 10.4213C17.056 9.98908 16.8123 9.37191 16.8123 8.63619C16.8123 7.16341 17.7921 6.15604 19.2619 6.15604C19.6561 6.15061 20.0467 6.23045 20.4057 6.38978C20.7311 6.53428 21.0234 6.74087 21.2655 6.99711C21.3069 7.04094 21.3757 7.04601 21.4213 7.00655L22.5289 6.04815C22.5741 6.00901 22.5797 5.94064 22.5398 5.89606C21.7066 4.96509 20.4014 4.48438 19.1603 4.48438C16.6612 4.48438 14.8892 6.1701 14.8892 8.65019C14.8892 9.87683 15.3296 10.9097 16.0723 11.6391C16.8149 12.3684 17.873 12.7969 19.0938 12.7969C20.6246 12.7969 21.8566 12.2099 22.579 11.4568C22.6214 11.4126 22.6167 11.3423 22.5704 11.3023L21.4332 10.3212ZM34.6455 9.18211C34.6394 9.2369 34.5928 9.27791 34.5377 9.27791H28.7905C28.7206 9.27791 28.6686 9.34265 28.6868 9.41006C28.9728 10.47 29.8252 11.1113 30.9888 11.1113C31.381 11.1196 31.7698 11.0389 32.1252 10.8755C32.4563 10.7232 32.75 10.503 32.9867 10.23C33.0153 10.197 33.0652 10.1921 33.0987 10.2201L34.2542 11.2261C34.2984 11.2646 34.3045 11.3312 34.2666 11.3759C33.569 12.1989 32.4387 12.7969 30.8877 12.7969C28.5015 12.7969 26.7016 11.1445 26.7016 8.634C26.7016 7.40236 27.1256 6.36956 27.8324 5.64028C28.2054 5.26526 28.6527 4.96931 29.1464 4.77064C29.6402 4.57198 30.1701 4.47481 30.7035 4.48512C33.122 4.48512 34.686 6.186 34.686 8.53455C34.6829 8.75092 34.6694 8.96704 34.6455 9.18211ZM28.7213 7.65792C28.701 7.72542 28.7532 7.79119 28.8237 7.79119H32.6451C32.7157 7.79119 32.7679 7.72502 32.7483 7.65715C32.4878 6.75572 31.827 6.15412 30.8008 6.15412C30.4989 6.14455 30.1985 6.19919 29.9201 6.31425C29.6417 6.42937 29.3918 6.60221 29.1876 6.82094C28.9728 7.06442 28.814 7.34991 28.7213 7.65792ZM40.3722 4.48558C40.4331 4.48492 40.4828 4.53408 40.4828 4.59495V6.43184C40.4828 6.4955 40.4287 6.54567 40.3652 6.54096C40.1879 6.52782 40.0203 6.51666 39.9104 6.51666C38.4793 6.51666 37.6391 7.5239 37.6391 8.84602V12.5781C37.6391 12.6385 37.5901 12.6875 37.5297 12.6875H35.8891C35.8287 12.6875 35.7797 12.6385 35.7797 12.5781V4.70851C35.7797 4.6481 35.8287 4.59913 35.8891 4.59913H37.5297C37.5901 4.59913 37.6391 4.6481 37.6391 4.70851V5.81307C37.6391 5.8193 37.6441 5.82435 37.6504 5.82435C37.6539 5.82435 37.6573 5.82266 37.6594 5.81981C38.3008 4.96336 39.2473 4.48693 40.2473 4.48693L40.3722 4.48558ZM44.8164 9.29639C44.8231 9.28919 44.8325 9.2851 44.8423 9.2851C44.8545 9.2851 44.8659 9.29142 44.8724 9.30181L46.9468 12.6359C46.9668 12.668 47.0019 12.6875 47.0397 12.6875L48.9047 12.6875C48.9904 12.6875 49.0428 12.5934 48.9977 12.5205L46.1517 7.92862C46.126 7.88716 46.1309 7.83369 46.1636 7.79755L48.9057 4.77223C48.9694 4.70193 48.9195 4.5894 48.8246 4.5894H46.879C46.8484 4.5894 46.8191 4.60226 46.7984 4.62484L43.6259 8.08305C43.5585 8.15654 43.4359 8.10884 43.4359 8.00911V1.42187C43.4359 1.36147 43.387 1.3125 43.3266 1.3125H41.6859C41.6255 1.3125 41.5766 1.36147 41.5766 1.42187V12.5781C41.5766 12.6385 41.6255 12.6875 41.6859 12.6875L43.3266 12.6875C43.387 12.6875 43.4359 12.6385 43.4359 12.5781V10.8226C43.4359 10.7949 43.4464 10.7683 43.4652 10.748L44.8164 9.29639Z" fill="currentColor"/>
</svg>
