<svg xmlns="http://www.w3.org/2000/svg" fill="currentColor" viewBox="0 0 48 14"><path fill-rule="evenodd" d="M.32 3.89a.65.65 0 0 0-.32.56v5.13c0 .23.12.45.32.56L7 14.02v-.01l6.68-3.89a.65.65 0 0 0 .32-.56V4.64a.33.33 0 0 0-.49-.28l-6.18 3.6a.65.65 0 0 0-.33.56v.95L.54 5.7 7 1.96V.57a.33.33 0 0 0-.49-.28L.33 3.89Zm8.75 4.7a.16.16 0 0 0-.08.14v.41c0 .07.07.1.13.07l3.3-1.91a.16.16 0 0 0 .07-.14v-.42a.08.08 0 0 0-.12-.07l-3.3 1.91Z" clip-rule="evenodd"/><path d="M4.67 7.16c0-.23.12-.44.32-.56L11.18 3c.21-.12.49.03.49.28v1.4l-7 4.06V7.16ZM2.33 5.8c0-.23.13-.44.33-.56l6.18-3.6c.22-.12.5.04.5.29V3.3l-7 4.07V5.8Zm18.55 6.08a4.9 4.9 0 0 1-1.64-.27 3.98 3.98 0 0 1-1.37-.86 4.24 4.24 0 0 1-.92-1.43 5.44 5.44 0 0 1-.35-2.02c0-.75.12-1.42.36-2 .24-.59.56-1.08.95-1.47a4.18 4.18 0 0 1 3.02-1.24c.6 0 1.13.12 1.6.35.47.23.86.51 1.18.83L22.47 5.3c-.22-.2-.45-.35-.68-.47a1.6 1.6 0 0 0-.8-.2c-.27 0-.52.07-.76.19-.23.12-.44.29-.62.5a2.72 2.72 0 0 0-.43.82 3.63 3.63 0 0 0-.15 1.1c0 .84.17 1.48.52 1.94.36.45.83.67 1.4.67.36 0 .67-.07.93-.22.28-.15.51-.34.7-.55l1.24 1.49a3.77 3.77 0 0 1-1.33 1 3.92 3.92 0 0 1-1.61.32Zm5.84 0c-.4 0-.75-.06-1.02-.18a1.69 1.69 0 0 1-.65-.53 2.26 2.26 0 0 1-.36-.82 5.43 5.43 0 0 1-.1-1.06V2.12h2.38v7.25c0 .24.04.4.12.49.1.08.18.12.26.12h.11l.14-.03.28 1.74c-.13.06-.3.1-.49.14a3.5 3.5 0 0 1-.67.05Zm4.9 0a4.1 4.1 0 0 1-1.4-.23 3.4 3.4 0 0 1-1.13-.7 3.43 3.43 0 0 1-.75-1.15 4.03 4.03 0 0 1-.27-1.53 3.73 3.73 0 0 1 1.02-2.65 3.28 3.28 0 0 1 1.06-.72 3.14 3.14 0 0 1 1.22-.24c.51 0 .95.08 1.33.26.37.17.69.41.93.71a3 3 0 0 1 .56 1.07 4.28 4.28 0 0 1 .15 1.89 3.8 3.8 0 0 1-.06.4h-3.93c.11.41.31.7.6.87.28.15.62.23 1 .23.24 0 .47-.03.7-.1.22-.07.46-.18.7-.31l.78 1.4a4.29 4.29 0 0 1-2.5.8Zm-1.3-4.44h2.05c0-.27-.07-.5-.21-.69-.13-.2-.37-.3-.73-.3-.27 0-.5.07-.7.23-.2.16-.33.41-.4.76Zm7.04 4.28a1.95 1.95 0 0 1-1.96-1.96V4.83h1.37c.32 0 .6.24.64.56l.09.63h.05c.26-.47.56-.81.91-1.02.36-.22.71-.33 1.05-.33a2.5 2.5 0 0 1 .85.13l-.38 2.04a6.47 6.47 0 0 0-.37-.06 1.67 1.67 0 0 0-.4-.04c-.25 0-.51.08-.79.26-.27.16-.48.46-.65.9v3.83h-.41Zm5.48 0a1.95 1.95 0 0 1-1.95-1.96V2.13h2.31v5.1h.06l1.31-1.66c.37-.47.94-.74 1.53-.74h1.62L45.27 7.7l2.59 4.03h-1.42a1.95 1.95 0 0 1-1.7-1l-.82-1.46-.72.8v1.66h-.36Z"/></svg>
