<svg width="17" height="16" viewBox="0 0 17 16" fill="none" xmlns="http://www.w3.org/2000/svg">
<path d="M13.5981 5.10827C13.1795 5.52693 12.9702 5.73626 12.7506 5.77677C12.5309 5.81728 12.3868 5.67315 12.0986 5.3849L11.1151 4.40144C10.8269 4.11319 10.6827 3.96907 10.7232 3.74946C10.7638 3.52985 10.9731 3.32052 11.3917 2.90186L11.6184 2.67521C12.037 2.25656 12.2464 2.04723 12.466 2.00672C12.6856 1.96621 12.8297 2.11034 13.118 2.39859L14.1014 3.38205C14.3897 3.6703 14.5338 3.81442 14.4933 4.03403C14.4528 4.25364 14.2434 4.46297 13.8248 4.88162L13.5981 5.10827Z" fill="currentColor"/>
<path d="M4.65997 13.6882L3.45406 13.9107C2.95422 14.0029 2.70427 14.049 2.57763 13.9224C2.45099 13.7957 2.49709 13.5458 2.5893 13.0459L2.81175 11.84C2.85173 11.6233 2.87172 11.515 2.93005 11.4101C2.98838 11.3052 3.07913 11.2145 3.26064 11.033L8.81438 5.47921C9.23303 5.06056 9.44236 4.85123 9.66197 4.81072C9.88158 4.77021 10.0257 4.91434 10.314 5.20259L11.2974 6.18604C11.5857 6.4743 11.7298 6.61842 11.6893 6.83803C11.6488 7.05764 11.4394 7.26697 11.0208 7.68562L5.46702 13.2394C5.28553 13.4209 5.19478 13.5116 5.08991 13.57C4.98503 13.6283 4.87668 13.6483 4.65997 13.6882Z" fill="currentColor"/>
<path d="M9.25 12.5C8.83579 12.5 8.5 12.8358 8.5 13.25C8.5 13.6642 8.83579 14 9.25 14H13.75C14.1642 14 14.5 13.6642 14.5 13.25C14.5 12.8358 14.1642 12.5 13.75 12.5H9.25Z" fill="currentColor"/>
</svg>
