<svg viewBox="0 0 10 10" fill="none" xmlns="http://www.w3.org/2000/svg">
<path d="M5.74999 0.75C5.74999 0.335786 5.4142 0 4.99999 0C4.58578 0 4.24999 0.335786 4.24999 0.75V4.24997H0.75C0.335786 4.24997 0 4.58575 0 4.99997C0 5.41418 0.335786 5.74997 0.75 5.74997H4.24999L4.25 9.24997C4.25 9.66418 4.58579 9.99997 5 9.99997C5.41421 9.99997 5.75 9.66418 5.75 9.24997L5.74999 5.74997H9.25C9.66421 5.74997 10 5.41418 10 4.99997C10 4.58575 9.66421 4.24997 9.25 4.24997H5.74999V0.75Z" fill="#2F3037"/>
</svg>
