<svg width="13" height="14" viewBox="0 0 13 14" fill="none" xmlns="http://www.w3.org/2000/svg">
<path d="M3.10668 8.12554C2.96001 8.144 2.81334 8.16369 2.66668 8.18462M3.10668 8.12554C5.24939 7.85483 7.4173 7.85483 9.56001 8.12554M3.10668 8.12554L2.87445 10.6923M9.56001 8.12554C9.70668 8.144 9.85334 8.16369 10 8.18462M9.56001 8.12554L9.79223 10.6923L9.93218 12.2449C9.94084 12.3407 9.92958 12.4373 9.89912 12.5284C9.86867 12.6196 9.81968 12.7034 9.75528 12.7744C9.69088 12.8455 9.61249 12.9022 9.52511 12.9411C9.43772 12.9799 9.34325 13 9.24773 13H3.41895C3.0144 13 2.69784 12.6505 2.73451 12.2449L2.87445 10.6923M2.87445 10.6923H2.20834C1.84367 10.6923 1.49393 10.5464 1.23607 10.2868C0.978209 10.0271 0.833344 9.67492 0.833344 9.30769V5.43446C0.833344 4.76923 1.30268 4.19446 1.95595 4.096C2.34459 4.03746 2.73435 3.98678 3.12501 3.944M9.79101 10.6923H10.4577C10.6384 10.6924 10.8172 10.6566 10.9841 10.5871C11.151 10.5175 11.3027 10.4156 11.4304 10.287C11.5581 10.1584 11.6595 10.0057 11.7286 9.8377C11.7978 9.66967 11.8333 9.48957 11.8333 9.30769V5.43446C11.8333 4.76923 11.364 4.19446 10.7107 4.096C10.3221 4.03746 9.93233 3.98679 9.54168 3.944M9.54168 3.944C7.40908 3.71034 5.25761 3.71034 3.12501 3.944M9.54168 3.944V1.69231C9.54168 1.31015 9.23368 1 8.85418 1H3.81251C3.43301 1 3.12501 1.31015 3.12501 1.69231V3.944M10 6.07692H10.0049V6.08185H10V6.07692ZM8.16668 6.07692H8.17157V6.08185H8.16668V6.07692Z" stroke="currentColor" stroke-width="1.2" stroke-linecap="round" stroke-linejoin="round"/>
</svg>
