<svg width="16" height="16" viewBox="0 0 16 16" fill="currentColor" xmlns="http://www.w3.org/2000/svg">
<path d="M5.53033 9.21967C5.23744 8.92678 4.76256 8.92678 4.46967 9.21967C4.17678 9.51256 4.17678 9.98744 4.46967 10.2803L7.46967 13.2803C7.76256 13.5732 8.23744 13.5732 8.53033 13.2803L11.5303 10.2803C11.8232 9.98744 11.8232 9.51256 11.5303 9.21967C11.2374 8.92678 10.7626 8.92678 10.4697 9.21967L8 11.6893L5.53033 9.21967Z"/>
<path d="M5.53033 6.78033C5.23744 7.07322 4.76256 7.07322 4.46967 6.78033C4.17678 6.48744 4.17678 6.01256 4.46967 5.71967L7.46967 2.71967C7.76256 2.42678 8.23744 2.42678 8.53033 2.71967L11.5303 5.71967C11.8232 6.01256 11.8232 6.48744 11.5303 6.78033C11.2374 7.07322 10.7626 7.07322 10.4697 6.78033L8 4.31066L5.53033 6.78033Z"/>
</svg>
