<svg fill="none" xmlns="http://www.w3.org/2000/svg" viewBox="0.25 0 8 14"><path fill-rule="evenodd" clip-rule="evenodd" d="M4.25 0C4.51522 5.96046e-08 4.76957 0.105357 4.95711 0.292893L7.95711 3.29289C8.34763 3.68342 8.34763 4.31658 7.95711 4.70711C7.56658 5.09763 6.93342 5.09763 6.54289 4.70711L4.25 2.41421L1.95711 4.70711C1.56658 5.09763 0.933417 5.09763 0.542893 4.70711C0.152369 4.31658 0.152369 3.68342 0.542893 3.29289L3.54289 0.292893C3.73043 0.105357 3.98478 0 4.25 0ZM0.542893 9.29289C0.933417 8.90237 1.56658 8.90237 1.95711 9.29289L4.25 11.5858L6.54289 9.29289C6.93342 8.90237 7.56658 8.90237 7.95711 9.29289C8.34763 9.68342 8.34763 10.3166 7.95711 10.7071L4.95711 13.7071C4.56658 14.0976 3.93342 14.0976 3.54289 13.7071L0.542893 10.7071C0.152369 10.3166 0.152369 9.68342 0.542893 9.29289Z" fill="currentColor"></path> </svg>
