<svg width="9" height="14" viewBox="0 0 9 14" fill="none" xmlns="http://www.w3.org/2000/svg">
<path fill-rule="evenodd" clip-rule="evenodd" d="M4.14844 0C4.41365 5.96046e-08 4.66801 0.105357 4.85555 0.292893L7.85554 3.29289C8.24607 3.68342 8.24607 4.31658 7.85554 4.70711C7.46502 5.09763 6.83185 5.09763 6.44133 4.70711L4.14844 2.41421L1.85554 4.70711C1.46502 5.09763 0.831855 5.09763 0.441331 4.70711C0.0508064 4.31658 0.0508065 3.68342 0.441331 3.29289L3.44133 0.292893C3.62887 0.105357 3.88322 0 4.14844 0ZM0.441331 9.29289C0.831855 8.90237 1.46502 8.90237 1.85554 9.29289L4.14844 11.5858L6.44133 9.29289C6.83185 8.90237 7.46502 8.90237 7.85554 9.29289C8.24607 9.68342 8.24607 10.3166 7.85554 10.7071L4.85554 13.7071C4.46502 14.0976 3.83186 14.0976 3.44133 13.7071L0.441331 10.7071C0.0508064 10.3166 0.0508064 9.68342 0.441331 9.29289Z" fill="black" fill-opacity="0.3"/>
</svg>
