<svg width="16" height="16" viewBox="0 0 16 16" xmlns="http://www.w3.org/2000/svg"><g><path fill="currentColor" fill-rule="evenodd" clip-rule="evenodd" d="M2.60077 2.60409C2.98543 2.2173 3.50715 2 4.05115 2H7.46812C8.01212 2 8.53383 2.2173 8.9185 2.60409C9.30316 2.99089 9.51927 3.51549 9.51927 4.0625V4.75117C9.51927 5.16539 9.18533 5.50117 8.7734 5.50117C8.36146 5.50117 8.02752 5.16539 8.02752 4.75117V4.0625C8.02752 3.91332 7.96859 3.77024 7.86368 3.66475C7.75877 3.55926 7.61648 3.5 7.46812 3.5H4.05115C3.90278 3.5 3.7605 3.55926 3.65559 3.66475C3.55068 3.77024 3.49174 3.91332 3.49174 4.0625V11.9375C3.49174 12.0867 3.55068 12.2298 3.65559 12.3352C3.7605 12.4407 3.90278 12.5 4.05115 12.5H7.46812C7.61648 12.5 7.75877 12.4407 7.86368 12.3352C7.96859 12.2298 8.02752 12.0867 8.02752 11.9375V11.2656C8.02752 10.8514 8.36146 10.5156 8.7734 10.5156C9.18533 10.5156 9.51927 10.8514 9.51927 11.2656V11.9375C9.51927 12.4845 9.30316 13.0091 8.9185 13.3959C8.53383 13.7827 8.01212 14 7.46812 14H4.05115C3.50715 14 2.98543 13.7827 2.60077 13.3959C2.2161 13.0091 2 12.4845 2 11.9375V4.0625C2 3.51549 2.2161 2.99089 2.60077 2.60409ZM10.9864 5.71967C11.2776 5.42678 11.7499 5.42678 12.0412 5.71967L13.7815 7.46967C14.0728 7.76256 14.0728 8.23744 13.7815 8.53033L12.0412 10.2803C11.7499 10.5732 11.2776 10.5732 10.9864 10.2803C10.6951 9.98744 10.6951 9.51256 10.9864 9.21967L11.4534 8.75H5.85757C5.44564 8.75 5.1117 8.41421 5.1117 8C5.1117 7.58579 5.44564 7.25 5.85757 7.25H11.4534L10.9864 6.78033C10.6951 6.48744 10.6951 6.01256 10.9864 5.71967Z"/></g></svg>
