<svg viewBox="0 0 14 4" fill="none" xmlns="http://www.w3.org/2000/svg">
<path d="M3.79961 2.00002C3.79961 2.88368 3.08326 3.60002 2.19961 3.60002C1.31595 3.60002 0.599609 2.88368 0.599609 2.00002C0.599609 1.11637 1.31595 0.400024 2.19961 0.400024C3.08326 0.400024 3.79961 1.11637 3.79961 2.00002Z" fill="black" fill-opacity="0.65"/>
<path d="M8.59961 2.00002C8.59961 2.88368 7.88326 3.60002 6.99961 3.60002C6.11595 3.60002 5.39961 2.88368 5.39961 2.00002C5.39961 1.11637 6.11595 0.400024 6.99961 0.400024C7.88326 0.400024 8.59961 1.11637 8.59961 2.00002Z" fill="black" fill-opacity="0.65"/>
<path d="M11.7996 3.60002C12.6833 3.60002 13.3996 2.88368 13.3996 2.00002C13.3996 1.11637 12.6833 0.400024 11.7996 0.400024C10.916 0.400024 10.1996 1.11637 10.1996 2.00002C10.1996 2.88368 10.916 3.60002 11.7996 3.60002Z" fill="black" fill-opacity="0.65"/>
</svg>
