<svg width="10" height="10" viewBox="0 0 10 8" fill="none" xmlns="http://www.w3.org/2000/svg">
<path fill-rule="evenodd" clip-rule="evenodd" d="M0.576127 1.07564C0.810441 0.841324 1.19034 0.841324 1.42465 1.07564L4.00039 3.65137L6.57613 1.07564C6.81044 0.841324 7.19034 0.841324 7.42465 1.07564C7.65897 1.30995 7.65897 1.68985 7.42465 1.92417L4.84892 4.4999L7.42465 7.07564C7.65897 7.30995 7.65897 7.68985 7.42465 7.92417C7.19034 8.15848 6.81044 8.15848 6.57613 7.92417L4.00039 5.34843L1.42465 7.92417C1.19034 8.15848 0.810441 8.15848 0.576127 7.92417C0.341812 7.68985 0.341812 7.30995 0.576127 7.07564L3.15186 4.4999L0.576127 1.92417C0.341812 1.68985 0.341812 1.30995 0.576127 1.07564Z" fill="currentColor"/>
</svg>
