<svg width="12" height="13" viewBox="0 0 12 13" fill="none" xmlns="http://www.w3.org/2000/svg">
<path d="M1.5 3.5H2.5H10.5" stroke="currentColor" stroke-linecap="round" stroke-linejoin="round"/>
<path d="M10 3.5C10 3.22386 9.77614 3 9.5 3C9.22386 3 9 3.22386 9 3.5H10ZM3 3.5C3 3.22386 2.77614 3 2.5 3C2.22386 3 2 3.22386 2 3.5H3ZM3.5 3.5C3.5 3.77614 3.72386 4 4 4C4.27614 4 4.5 3.77614 4.5 3.5H3.5ZM7.5 3.5C7.5 3.77614 7.72386 4 8 4C8.27614 4 8.5 3.77614 8.5 3.5H7.5ZM9 3.5V10.5H10V3.5H9ZM9 10.5C9 10.7761 8.77614 11 8.5 11V12C9.32843 12 10 11.3284 10 10.5H9ZM8.5 11H3.5V12H8.5V11ZM3.5 11C3.22386 11 3 10.7761 3 10.5H2C2 11.3284 2.67157 12 3.5 12V11ZM3 10.5V3.5H2V10.5H3ZM4.5 3.5V2.5H3.5V3.5H4.5ZM4.5 2.5C4.5 2.22386 4.72386 2 5 2V1C4.17157 1 3.5 1.67157 3.5 2.5H4.5ZM5 2H7V1H5V2ZM7 2C7.27614 2 7.5 2.22386 7.5 2.5H8.5C8.5 1.67157 7.82843 1 7 1V2ZM7.5 2.5V3.5H8.5V2.5H7.5Z" fill="currentColor"/>
</svg>
