<svg xmlns="http://www.w3.org/2000/svg" fill="none" viewBox="0 0 12 13"><path stroke="currentColor" stroke-linecap="round" stroke-linejoin="round" d="M1.5 3.5h9"/><path fill="currentColor" d="M10 3.5a.5.5 0 0 0-1 0h1Zm-7 0a.5.5 0 0 0-1 0h1Zm.5 0a.5.5 0 0 0 1 0h-1Zm4 0a.5.5 0 0 0 1 0h-1Zm1.5 0v7h1v-7H9Zm0 7c0 .3-.2.5-.5.5v1c.8 0 1.5-.7 1.5-1.5H9Zm-.5.5h-5v1h5v-1Zm-5 0a.5.5 0 0 1-.5-.5H2c0 .8.7 1.5 1.5 1.5v-1Zm-.5-.5v-7H2v7h1Zm1.5-7v-1h-1v1h1Zm0-1c0-.3.2-.5.5-.5V1c-.8 0-1.5.7-1.5 1.5h1ZM5 2h2V1H5v1Zm2 0c.3 0 .5.2.5.5h1C8.5 1.7 7.8 1 7 1v1Zm.5.5v1h1v-1h-1Z"/></svg>
