<svg width="16" height="16" viewBox="0 0 16 16" xmlns="http://www.w3.org/2000/svg" fill="currentColor"><path fill-rule="evenodd" clip-rule="evenodd" d="M15 8C15 11.866 11.866 15 8 15C4.13401 15 1 11.866 1 8C1 4.13401 4.13401 1 8 1C11.866 1 15 4.13401 15 8ZM12.4146 10.8937C12.5691 11.1435 12.5223 11.462 12.3319 11.6856C11.2886 12.9106 9.73505 13.6875 8 13.6875C6.26495 13.6875 4.71135 12.9106 3.66814 11.6856C3.47767 11.462 3.43086 11.1435 3.58539 10.8937C3.67189 10.7539 3.77351 10.6226 3.89123 10.5024C4.35074 10.0332 4.97779 9.51584 5.59375 9.4C6.10816 9.30326 6.4926 9.45577 6.89173 9.61411C7.22335 9.74567 7.56512 9.88125 8 9.88125C8.43488 9.88125 8.77665 9.74567 9.10827 9.61411C9.5074 9.45577 9.89184 9.30326 10.4062 9.4C11.0222 9.51584 11.6493 10.0332 12.1088 10.5024C12.2265 10.6226 12.3281 10.7539 12.4146 10.8937ZM8 8.91875C9.32894 8.91875 10.4062 7.36019 10.4062 6.03125C10.4062 4.70231 9.32894 3.625 8 3.625C6.67106 3.625 5.59375 4.70231 5.59375 6.03125C5.59375 7.36019 6.67106 8.91875 8 8.91875Z"/></svg>
