<svg xmlns="http://www.w3.org/2000/svg" width="24" height="18" fill="none"><path fill="#1434CB" d="M10.8 11.913H9.342l.912-5.808h1.458l-.912 5.808ZM16.086 6.247A3.502 3.502 0 0 0 14.778 6c-1.44 0-2.454.79-2.46 1.922-.012.834.726 1.297 1.278 1.575.564.284.756.47.756.723-.006.39-.456.569-.876.569-.582 0-.894-.093-1.368-.31l-.192-.092-.204 1.304c.342.16.972.303 1.626.309 1.53 0 2.526-.779 2.538-1.983.006-.662-.384-1.168-1.224-1.582-.51-.266-.822-.445-.822-.717.006-.247.264-.5.84-.5.473-.013.822.104 1.086.222l.131.061.199-1.254ZM18.024 9.856l.582-1.625c-.006.012.12-.34.192-.556l.102.5s.276 1.39.336 1.68h-1.212Zm1.8-3.75h-1.128c-.348 0-.612.104-.762.481l-2.166 5.326h1.53l.306-.87h1.872c.042.203.174.87.174.87H21l-1.176-5.808ZM8.124 6.105l-1.428 3.96-.156-.802c-.264-.927-1.092-1.934-2.016-2.435l1.308 5.08h1.542l2.292-5.803H8.124Z"/><path fill="#1434CB" d="M5.37 6.105H3.024L3 6.223c1.83.482 3.042 1.643 3.54 3.04l-.51-2.67c-.084-.37-.342-.475-.66-.488Z"/><rect width="23.5" height="15.5" x=".25" y="1.25" stroke="#000" stroke-opacity=".24" stroke-width=".5" rx="3.75"/></svg>