<svg viewBox="0 0 14 12" fill="none" xmlns="http://www.w3.org/2000/svg">
  <path fill-rule="evenodd" clip-rule="evenodd" d="M1.66634 0C0.929962 0 0.333008 0.596954 0.333008 1.33333V10.6667C0.333008 11.403 0.929962 12 1.66634 12H12.333C13.0694 12 13.6663 11.403 13.6663 10.6667V1.33333C13.6663 0.596954 13.0694 0 12.333 0H1.66634ZM9.58233 6.66667C9.2863 7.81682 8.24223 8.66667 6.99968 8.66667C5.52692 8.66667 4.33301 7.47276 4.33301 6C4.33301 4.52724 5.52692 3.33333 6.99968 3.33333C8.24223 3.33333 9.2863 4.18318 9.58233 5.33333H10.9997C11.3679 5.33333 11.6663 5.63181 11.6663 6C11.6663 6.36819 11.3679 6.66667 10.9997 6.66667H9.58233ZM8.33301 6C8.33301 6.73638 7.73605 7.33333 6.99968 7.33333C6.2633 7.33333 5.66634 6.73638 5.66634 6C5.66634 5.26362 6.2633 4.66667 6.99968 4.66667C7.73605 4.66667 8.33301 5.26362 8.33301 6Z" fill="#808080"/>
</svg>
