<svg viewBox="0 0 16 16" fill="none" xmlns="http://www.w3.org/2000/svg"><path fill-rule="evenodd" clip-rule="evenodd" d="M9.49 1.17c-.38-1.56-2.6-1.56-2.98 0a1.532 1.532 0 0 1-2.286.948c-1.372-.836-2.942.734-2.106 2.106.54.886.061 2.042-.947 2.287-1.561.379-1.561 2.6 0 2.978a1.532 1.532 0 0 1 .947 2.287c-.836 1.372.734 2.942 2.106 2.106a1.532 1.532 0 0 1 2.287.947c.379 1.561 2.6 1.561 2.978 0a1.532 1.532 0 0 1 2.287-.947c1.372.836 2.942-.734 2.106-2.106a1.532 1.532 0 0 1 .947-2.287c1.561-.379 1.561-2.6 0-2.978a1.532 1.532 0 0 1-.947-2.287c.836-1.372-.734-2.942-2.106-2.106a1.532 1.532 0 0 1-2.287-.947ZM8 11a3 3 0 1 0 0-6 3 3 0 0 0 0 6Z" fill="currentColor"/></svg>