<svg viewBox="0 0 112 64" fill="none" xmlns="http://www.w3.org/2000/svg">
<path fill-rule="evenodd" clip-rule="evenodd" d="M10.9178 1.02683C11.486 0.396341 12.4089 0 14.2113 0H97.5931C99.1713 0 99.905 0.326084 100.468 0.901225C101.017 1.46135 101.23 2.2593 101.23 3.99271V58.6062C101.23 60.1902 101 60.8332 100.613 61.3513C100.047 62.1087 99.1432 62.5989 98.1253 62.5989H13.3242C12.3632 62.5989 11.5042 62.162 10.9348 61.476C10.4883 60.9382 10.3086 60.2472 10.3086 58.6062V3.99271C10.3086 2.30601 10.4218 1.57721 10.9178 1.02683Z" fill="black"/>
<g filter="url(#filter0_d)">
<path d="M99.4842 60.6967C100.05 60.7036 100.377 60.5972 100.551 60.387C100.71 60.1938 100.779 59.8782 100.779 59.3459V3.3022C100.779 1.3498 100.062 0.514062 98.1847 0.500008L13.4929 0.5C11.4491 0.516126 10.6582 1.16085 10.6582 2.99149V58.7455C10.6582 60.0831 11.0217 60.7089 11.8244 60.6967L99.4842 60.6967Z" fill="#323232"/>
</g>
<path fill-rule="evenodd" clip-rule="evenodd" d="M0.584046 62.713C0.21106 62.5721 0 62.2054 0 61.8068C0 61.1832 0.50548 60.6777 1.12902 60.6777H110.506C111.131 60.6777 111.637 61.1844 111.637 61.8093C111.637 62.2067 111.428 62.5741 111.055 62.7094C109.482 63.2785 105.73 63.9871 101.217 63.9804C96.057 63.9728 56.7015 63.9316 55.5684 63.9304C55.5326 63.9303 55.5544 63.9303 55.5187 63.9304C54.3851 63.9318 14.5348 63.9804 10.0078 63.9804C5.00261 63.9804 1.89123 63.2064 0.584046 62.713Z" fill="#191919"/>
<path fill-rule="evenodd" clip-rule="evenodd" d="M111.637 60.6777V62.4291H0L0 60.6777H111.637Z" fill="#2C2C2C"/>
<path fill-rule="evenodd" clip-rule="evenodd" d="M47.5879 60.6777H63.3002C63.3002 61.1156 62.9585 61.9287 62.0578 61.9287H48.7415C48.0431 61.9287 47.5879 61.1156 47.5879 60.6777Z" fill="#262A2D"/>
<path fill-rule="evenodd" clip-rule="evenodd" d="M11.6094 2.75195H99.6782V57.795H11.6094V2.75195Z" fill="#111111"/>
<defs>
<filter id="filter0_d" x="10.1582" y="0" width="91.1204" height="61.197" filterUnits="userSpaceOnUse" color-interpolation-filters="sRGB">
<feFlood flood-opacity="0" result="BackgroundImageFix"/>
<feColorMatrix in="SourceAlpha" type="matrix" values="0 0 0 0 0 0 0 0 0 0 0 0 0 0 0 0 0 0 127 0"/>
<feOffset/>
<feGaussianBlur stdDeviation="0.25"/>
<feColorMatrix type="matrix" values="0 0 0 0 0 0 0 0 0 0 0 0 0 0 0 0 0 0 0.5 0"/>
<feBlend mode="normal" in2="BackgroundImageFix" result="effect1_dropShadow"/>
<feBlend mode="normal" in="SourceGraphic" in2="effect1_dropShadow" result="shape"/>
</filter>
</defs>
</svg>
