<svg viewBox="670.641 72.329 84 76" width="84" height="76" xmlns="http://www.w3.org/2000/svg"><path fill-rule="evenodd" clip-rule="evenodd" d="m712.495 107.191.001-.037c.008-.22.055-.574.055-.574h.095c.079 0 .143.063.143.141v7.213a.141.141 0 0 1-.142.143h-.12c-.004-.002-.021-.027-.032-.304l-.002-5.127c0-.778.001-1.358.002-1.455Z" fill="var(--cl-chassis-screen, #6D6D6D)"/><path fill-rule="evenodd" clip-rule="evenodd" d="M697.375 99.921c-.009-.221-.057-.575-.057-.575h-.091a.142.142 0 0 0-.144.144v4.422c.001.078.098.145.179.145h.082c.003-.002.022-.027.033-.303l.002-2.944c0-.439 0-.774-.002-.852l-.002-.037Z" fill="var(--cl-chassis-back, #6D6D6D)"/><path fill-rule="evenodd" clip-rule="evenodd" d="M697.375 93.917c-.009-.218-.057-.574-.057-.574h-.091a.143.143 0 0 0-.144.143v4.422c.001.081.098.147.179.147h.082c.003-.002.022-.027.033-.304l.002-2.943c0-.438 0-.774-.002-.852l-.002-.039Z" fill="var(--cl-chassis-screen, #6D6D6D)"/><path d="M722.674 78.638c3.602 0 5.524 2.063 5.524 5.661v52.357c0 3.483-2.269 5.364-5.811 5.364h-19.379c-3.802 0-5.817-2.422-5.745-5.441V84.287c0-3.6 2.065-5.649 5.667-5.649h19.744Z" fill="var(--cl-chassis-back, #363636)"/><path d="M722.345 79.16c3.647 0 5.352 1.823 5.352 5.475v51.895c0 3.237-2.197 5.023-5.499 5.023H703.26c-3.267-.01-5.485-1.929-5.485-4.948V84.636c0-3.652 1.837-5.476 5.485-5.476h19.085Z" fill="var(--cl-chassis-screen, #363636)" stroke="var(--cl-chassis-bottom, black)" stroke-width=".5"/><path fill-rule="evenodd" clip-rule="evenodd" d="M704.882 80.28c.204 0 .351.165.351.37v.218c0 .894.722 1.69 1.612 1.69h11.804c.889 0 1.611-.796 1.611-1.69v-.218c0-.205.163-.37.367-.37h2.995c1.578 0 2.913 1.713 2.913 3.297v53.498c0 1.713-1.439 3.37-3.339 3.37h-20.971c-2.172 0-3.352-1.313-3.343-3.226V83.577c0-1.584 1.34-3.297 2.917-3.297h3.083Z" fill="var(--cl-screen, black)"/><path fill-rule="evenodd" clip-rule="evenodd" d="M715.31 81.2a.296.296 0 0 0-.203-.364.293.293 0 1 0-.161.565.293.293 0 0 0 .364-.201ZM710.15 81.039c0 .143.117.257.258.257h2.877a.257.257 0 0 0 .259-.257.257.257 0 0 0-.259-.256h-2.877a.258.258 0 0 0-.258.256Z"/></svg>