<svg viewBox="0 0 77 24" fill="none" xmlns="http://www.w3.org/2000/svg"><path d="M35.164 16.745a4.208 4.208 0 0 1-3.059 1.283c-1.072 0-1.972-.38-2.604-1.034-.633-.653-.977-1.567-.977-2.667 0-2.2 1.43-3.704 3.581-3.704A3.92 3.92 0 0 1 35.141 12l1.857-1.643c-1.21-1.47-3.175-2.232-5.048-2.232-3.652 0-6.244 2.518-6.244 6.223 0 1.833.644 3.376 1.73 4.466 1.086 1.09 2.633 1.73 4.418 1.73 2.317 0 4.168-.94 5.206-2.124l-1.896-1.675Zm3.578-13.317h2.761v16.92h-2.761V3.428ZM54.835 15.29c.045-.37.07-.74.076-1.111 0-3.508-2.297-6.05-5.85-6.05-1.688 0-3.165.629-4.217 1.726-1.051 1.097-1.66 2.632-1.66 4.476 0 3.75 2.643 6.22 6.147 6.22 2.352 0 4.047-.952 5.06-2.246l-1.809-1.604-.095-.077c-.615.762-1.602 1.408-3.01 1.408-1.777 0-3.06-1.037-3.428-2.74l8.786-.003Zm-8.738-2.222a3.361 3.361 0 0 1 .74-1.45c.578-.65 1.404-.995 2.37-.995 1.58 0 2.57.989 2.911 2.445h-6.021Zm17.377-4.973v3.086c-.32-.025-.64-.05-.839-.05-2.095 0-3.282 1.506-3.282 3.48v5.74H56.59V8.266h2.762v1.829h.024c.938-1.284 2.296-2 3.753-2h.344Zm6.44 7.193-2 2.222v2.838h-2.761V3.428h2.761V13.81l4.936-5.504h3.283l-4.343 4.862 4.418 7.183h-3.11l-3.135-5.06-.049-.002ZM19.124 3.16l-2.882 2.884a.572.572 0 0 1-.7.083A6.867 6.867 0 0 0 6.37 8.084a6.867 6.867 0 0 0-.243 7.459.571.571 0 0 1-.083.699L3.16 19.124a.57.57 0 0 1-.865-.064A12 12 0 0 1 19.058 2.296a.57.57 0 0 1 .066.865Z" fill="currentColor"/><path d="m19.124 20.839-2.882-2.883a.572.572 0 0 0-.7-.083 6.872 6.872 0 0 1-7.085 0 .572.572 0 0 0-.699.083l-2.883 2.883a.572.572 0 0 0 .065.864 12 12 0 0 0 14.12 0 .571.571 0 0 0 .064-.864ZM12 15.428a3.429 3.429 0 1 0 0-6.857 3.429 3.429 0 0 0 0 6.857Z" fill="currentColor"/></svg>