<svg viewBox="0 0 48 14" fill="currentColor" xmlns="http://www.w3.org/2000/svg"><path fill-rule="evenodd" clip-rule="evenodd" d="M.324 3.886A.651.651 0 0 0 0 4.449V9.58c0 .232.123.447.324.563L7 14.025v-.02l6.676-3.882A.651.651 0 0 0 14 9.56V4.64a.326.326 0 0 0-.49-.281L7.325 7.956A.651.651 0 0 0 7 8.518v.949L.543 5.712 7 1.958V.57A.326.326 0 0 0 6.51.29L.325 3.886Zm8.751 4.7a.163.163 0 0 0-.08.14v.416c0 .063.067.102.121.07l3.297-1.916a.163.163 0 0 0 .081-.141v-.416a.081.081 0 0 0-.122-.07L9.075 8.584Z"/><path d="M4.667 7.162c0-.232.123-.446.324-.563l6.186-3.597c.218-.126.49.03.49.281v1.388l-7 4.07V7.16ZM2.333 5.805c0-.232.124-.446.324-.563l6.187-3.597c.217-.126.49.03.49.282v1.387l-7 4.07V5.805ZM20.877 11.884c-.57 0-1.117-.092-1.64-.276a3.982 3.982 0 0 1-1.364-.856 4.24 4.24 0 0 1-.924-1.434c-.23-.58-.344-1.251-.344-2.015 0-.754.12-1.42.358-2 .239-.589.556-1.08.95-1.476a4.18 4.18 0 0 1 3.019-1.242c.597 0 1.13.12 1.598.359.469.23.864.506 1.185.828l-1.24 1.517c-.22-.193-.45-.35-.689-.469a1.607 1.607 0 0 0-.8-.193c-.266 0-.518.06-.757.18-.23.119-.436.29-.62.51a2.72 2.72 0 0 0-.427.814 3.632 3.632 0 0 0-.152 1.09c0 .846.175 1.494.524 1.945.358.45.827.676 1.405.676.35 0 .657-.074.924-.22.275-.157.51-.341.702-.553l1.24 1.49a3.766 3.766 0 0 1-1.336.994 3.921 3.921 0 0 1-1.612.33ZM26.719 11.884c-.405 0-.745-.06-1.02-.18a1.686 1.686 0 0 1-.648-.538 2.264 2.264 0 0 1-.358-.814 5.433 5.433 0 0 1-.097-1.062V2.116h2.37v7.257c0 .239.042.4.125.483.092.082.179.124.262.124h.11c.037 0 .082-.01.138-.028l.275 1.739c-.128.055-.29.1-.482.137a3.505 3.505 0 0 1-.675.056ZM31.622 11.884a4.1 4.1 0 0 1-1.405-.235 3.403 3.403 0 0 1-1.13-.703 3.429 3.429 0 0 1-.744-1.145 4.027 4.027 0 0 1-.276-1.532c0-.56.092-1.062.276-1.504.193-.45.44-.832.744-1.145a3.283 3.283 0 0 1 1.06-.717 3.144 3.144 0 0 1 1.227-.248c.506 0 .947.087 1.323.262.377.175.69.414.937.717a3 3 0 0 1 .552 1.062c.128.405.193.837.193 1.297 0 .212-.014.41-.042.593a3.805 3.805 0 0 1-.055.4h-3.927c.11.414.307.704.592.87.285.156.62.234 1.006.234.239 0 .469-.032.69-.096.229-.074.468-.18.716-.318l.771 1.408c-.376.266-.794.469-1.254.607-.45.128-.868.193-1.254.193ZM30.327 7.44h2.04c0-.266-.07-.496-.207-.69-.129-.202-.372-.303-.73-.303-.267 0-.501.078-.703.235-.193.156-.326.409-.4.758ZM37.357 11.718a1.953 1.953 0 0 1-1.954-1.953V4.82h1.363c.325 0 .6.24.645.562l.087.625h.055c.257-.47.56-.81.91-1.021.358-.221.707-.331 1.047-.331.211 0 .381.013.51.041.128.018.243.05.344.097l-.386 2.041a6.468 6.468 0 0 0-.372-.069 1.667 1.667 0 0 0-.4-.04c-.247 0-.51.086-.785.261-.266.166-.482.465-.647.897v3.835h-.417ZM42.841 11.718a1.954 1.954 0 0 1-1.953-1.953V2.116h2.315v5.105h.055l1.315-1.66c.37-.468.934-.74 1.531-.74h1.619L45.27 7.69l2.59 4.028h-1.419a1.954 1.954 0 0 1-1.704-.997l-.818-1.459-.716.8v1.656h-.362Z"/></svg>