<svg viewBox="0 0 14 14" fill="none" xmlns="http://www.w3.org/2000/svg">
<path fill-rule="evenodd" clip-rule="evenodd" d="M5.39998 2.2001C3.63266 2.2001 2.19998 3.63279 2.19998 5.4001C2.19998 7.16741 3.63266 8.6001 5.39998 8.6001C7.16729 8.6001 8.59998 7.16741 8.59998 5.4001C8.59998 3.63279 7.16729 2.2001 5.39998 2.2001ZM0.599976 5.4001C0.599976 2.74913 2.74901 0.600098 5.39998 0.600098C8.05094 0.600098 10.2 2.74913 10.2 5.4001C10.2 6.43676 9.87134 7.39667 9.31257 8.18132L13.1657 12.0344C13.4781 12.3468 13.4781 12.8534 13.1657 13.1658C12.8532 13.4782 12.3467 13.4782 12.0343 13.1658L8.1812 9.3127C7.39655 9.87146 6.43664 10.2001 5.39998 10.2001C2.74901 10.2001 0.599976 8.05106 0.599976 5.4001Z" fill="currentColor"/>
</svg>
