<svg viewBox="0 0 15 16" fill="none" xmlns="http://www.w3.org/2000/svg">
<path d="M1 0C0.447715 0 0 0.447716 0 1V13C0 13.5523 0.447715 14 1 14C1.55228 14 2 13.5523 2 13V1C2 0.447715 1.55228 0 1 0Z" fill="currentColor"/>
<path d="M11.2929 9.29289C10.9024 9.68342 10.9024 10.3166 11.2929 10.7071C11.6834 11.0976 12.3166 11.0976 12.7071 10.7071L15.7071 7.70711C15.8946 7.51957 16 7.26522 16 7C16 6.73478 15.8946 6.48043 15.7071 6.29289L12.7071 3.29289C12.3166 2.90237 11.6834 2.90237 11.2929 3.29289C10.9024 3.68342 10.9024 4.31658 11.2929 4.70711L12.5858 6L5 6C4.44771 6 4 6.44772 4 7C4 7.55229 4.44772 8 5 8H12.5858L11.2929 9.29289Z" fill="currentColor"/>
</svg>
