<svg viewBox="0 0 18 20" xmlns="http://www.w3.org/2000/svg" fill="currentColor">
<path d="M6.59961 3.9999C5.93687 3.9999 5.39961 4.53716 5.39961 5.1999C5.39961 5.86264 5.93687 6.3999 6.59961 6.3999L13.3026 6.3999L11.7511 7.95137C11.2825 8.42 11.2825 9.1798 11.7511 9.64843C12.2197 10.1171 12.9795 10.1171 13.4481 9.64843L17.0481 6.04843C17.2732 5.82339 17.3996 5.51816 17.3996 5.1999C17.3996 4.88164 17.2732 4.57642 17.0481 4.35138L13.4481 0.751374C12.9795 0.282745 12.2197 0.282745 11.7511 0.751374C11.2825 1.22 11.2825 1.9798 11.7511 2.44843L13.3026 3.9999L6.59961 3.9999Z"/>
<path d="M11.3996 15.9999C12.0624 15.9999 12.5996 15.4626 12.5996 14.7999C12.5996 14.1372 12.0624 13.5999 11.3996 13.5999L4.69667 13.5999L6.24814 12.0484C6.71677 11.5798 6.71677 10.82 6.24814 10.3514C5.77951 9.88274 5.01971 9.88274 4.55108 10.3514L0.95108 13.9514C0.726037 14.1764 0.599609 14.4816 0.599609 14.7999C0.599609 15.1182 0.726037 15.4234 0.95108 15.6484L4.55108 19.2484C5.01971 19.7171 5.77951 19.7171 6.24814 19.2484C6.71677 18.7798 6.71677 18.02 6.24814 17.5514L4.69667 15.9999L11.3996 15.9999Z"/>
</svg>
