<svg xmlns="http://www.w3.org/2000/svg" fill="none" viewBox="0 0 16 16"><path fill="currentColor" fill-rule="evenodd" d="M9.49 1.17c-.38-1.56-2.6-1.56-2.98 0a1.53 1.53 0 0 1-2.29.95c-1.37-.84-2.94.73-2.1 2.1.54.89.06 2.05-.95 2.3-1.56.37-1.56 2.6 0 2.97a1.53 1.53 0 0 1 .95 2.29c-.84 1.37.73 2.94 2.1 2.1a1.53 1.53 0 0 1 2.3.95c.37 1.56 2.6 1.56 2.97 0a1.53 1.53 0 0 1 2.29-.95c1.37.84 2.94-.73 2.1-2.1a1.53 1.53 0 0 1 .95-2.3c1.56-.37 1.56-2.6 0-2.97a1.53 1.53 0 0 1-.95-2.29c.84-1.37-.73-2.94-2.1-2.1a1.53 1.53 0 0 1-2.3-.95ZM8 11a3 3 0 1 0 0-6 3 3 0 0 0 0 6Z" clip-rule="evenodd"/></svg>
