<svg xmlns="http://www.w3.org/2000/svg" fill="none" viewBox="0 0 16 16"><path fill="currentColor" fill-rule="evenodd" d="M6 7.6v-.8a2 2 0 0 1 4 0v.8a.8.8 0 0 1 .8.8v2a.8.8 0 0 1-.8.8H6a.8.8 0 0 1-.8-.8v-2a.8.8 0 0 1 .8-.8Zm3.2-.8v.8H6.8v-.8a1.2 1.2 0 0 1 2.4 0Z" clip-rule="evenodd"/><path fill="currentColor" fill-rule="evenodd" d="M13.07 2.9a7.2 7.2 0 1 0 .02 10.19s.42-.47 0-.89-.88 0-.88 0a5.95 5.95 0 1 1-.02-8.42l-1.04 1.04c-.25.24-.16.44.18.44h2.5c.63 0 .63 0 .63-.63v-2.5c0-.34-.2-.43-.44-.18l-.95.94Z" clip-rule="evenodd"/></svg>
