<svg xmlns="http://www.w3.org/2000/svg" fill="none" viewBox="0 0 110 32"><circle cx="16" cy="16" r="5" fill="#131316" style="fill:#131316;fill:color(display-p3 .0745 .0745 .0863);fill-opacity:1"/><path fill="#131316" d="M25.01 27.838c.424.426.382 1.13-.118 1.465A15.925 15.925 0 0 1 15.999 32c-3.29 0-6.35-.994-8.893-2.697-.5-.335-.542-1.04-.117-1.465l3.654-3.654c.33-.33.842-.382 1.258-.17 1.23.63 2.622.986 4.098.986a8.961 8.961 0 0 0 4.098-.985c.416-.213.928-.161 1.258.17l3.654 3.653Zm-.117-25.141c.5.335.542 1.04.117 1.464l-3.654 3.654c-.33.33-.843.383-1.258.17A9 9 0 0 0 7.985 20.098c.213.416.16.928-.17 1.258L4.161 25.01c-.425.425-1.13.383-1.464-.117A15.926 15.926 0 0 1 0 16C0 7.163 7.163 0 16 0c3.29 0 6.35.994 8.893 2.697Z" style="fill:#131316;fill:color(display-p3 .0745 .0745 .0863);fill-opacity:1"/><path fill="#131316" fill-rule="evenodd" d="M100.405 21.249a.083.083 0 0 1 .06-.026.08.08 0 0 1 .068.038l4.742 7.621a.25.25 0 0 0 .212.118h4.263a.25.25 0 0 0 .213-.382l-6.506-10.495a.251.251 0 0 1 .028-.3l6.267-6.915a.25.25 0 0 0-.185-.418h-4.447c-.07 0-.137.03-.184.081l-7.252 7.905a.25.25 0 0 1-.434-.17V3.25A.25.25 0 0 0 97 3h-3.75a.25.25 0 0 0-.25.25v25.5c0 .138.112.25.25.25H97a.25.25 0 0 0 .25-.25v-4.013a.25.25 0 0 1 .067-.17l3.088-3.318ZM52.25 3.25A.25.25 0 0 1 52.5 3h3.75a.25.25 0 0 1 .25.25v25.5a.25.25 0 0 1-.25.25H52.5a.25.25 0 0 1-.25-.25V3.25Zm-5.292 20.341a.257.257 0 0 0-.344.011 6.58 6.58 0 0 1-2.02 1.3 6.688 6.688 0 0 1-2.599.5 5.628 5.628 0 0 1-2.204-.378 5.535 5.535 0 0 1-1.87-1.204c-.968-.988-1.525-2.398-1.525-4.08 0-3.366 2.24-5.67 5.599-5.67a6.236 6.236 0 0 1 2.614.535c.744.33 1.412.803 1.966 1.388.094.1.252.112.356.022l2.532-2.19a.244.244 0 0 0 .024-.348c-1.904-2.128-4.887-3.227-7.724-3.227-5.712 0-9.763 3.853-9.763 9.522 0 2.804 1.007 5.165 2.704 6.832 1.698 1.667 4.116 2.646 6.907 2.646 3.499 0 6.315-1.342 7.966-3.063a.243.243 0 0 0-.02-.353l-2.599-2.243Zm30.2-2.603a.247.247 0 0 1-.247.219H63.775a.241.241 0 0 0-.237.302c.653 2.422 2.602 3.888 5.261 3.888a5.921 5.921 0 0 0 2.598-.539 5.827 5.827 0 0 0 1.969-1.475.184.184 0 0 1 .256-.023l2.641 2.3c.101.088.115.24.028.342-1.594 1.881-4.177 3.248-7.723 3.248-5.454 0-9.568-3.777-9.568-9.515 0-2.815.97-5.176 2.585-6.843a8.946 8.946 0 0 1 3.003-1.988 9.068 9.068 0 0 1 3.56-.652c5.527 0 9.102 3.887 9.102 9.255-.007.495-.038.99-.093 1.48Zm-13.541-3.484a.239.239 0 0 0 .233.304h8.735c.162 0 .28-.15.236-.306-.595-2.06-2.106-3.435-4.451-3.435a4.869 4.869 0 0 0-2.014.366 4.799 4.799 0 0 0-1.674 1.158 5.126 5.126 0 0 0-1.065 1.913Zm26.63-7.251a.25.25 0 0 1 .253.25V14.7a.25.25 0 0 1-.269.25 16.35 16.35 0 0 0-1.04-.056c-3.27 0-5.191 2.303-5.191 5.325v8.53a.25.25 0 0 1-.25.25H80a.25.25 0 0 1-.25-.25V10.762a.25.25 0 0 1 .25-.25h3.75a.25.25 0 0 1 .25.25v2.525a.026.026 0 0 0 .046.015c1.466-1.957 3.63-3.046 5.916-3.046l.285-.003Z" clip-rule="evenodd" style="fill:#131316;fill:color(display-p3 .0745 .0745 .0863);fill-opacity:1"/></svg>
