<svg width="84" height="100" viewBox="0 0 84 100" fill="none" xmlns="http://www.w3.org/2000/svg">
<g clip-path="url(#clip0_28400_184673)">
<path d="M79.65 13.17L67.6475 25.1723C67.2704 25.549 66.7775 25.7883 66.2483 25.8515C65.7187 25.9148 65.1837 25.7985 64.7283 25.5214C60.0071 22.6731 54.5621 21.2526 49.0508 21.4314C43.5396 21.6102 38.1983 23.3806 33.6714 26.5288C30.8873 28.4668 28.4698 30.8842 26.5319 33.6683C23.3874 38.198 21.6187 43.5396 21.4385 49.0508C21.2584 54.5621 22.6745 60.0079 25.5165 64.7333C25.7917 65.1879 25.9068 65.7213 25.8436 66.2492C25.7803 66.7767 25.5423 67.2679 25.1674 67.6446L13.1651 79.6467C12.9234 79.89 12.632 80.0783 12.3108 80.1983C11.9896 80.3188 11.6463 80.3679 11.3042 80.3433C10.9622 80.3183 10.6296 80.22 10.3292 80.0546C10.0287 79.8892 9.76758 79.6608 9.56362 79.385C3.0696 70.4588 -0.286495 59.6338 0.0191754 48.5996C0.324846 37.5653 4.27508 26.9427 11.2533 18.3898C13.3837 15.7729 15.7759 13.3806 18.3928 11.2503C26.9451 4.27392 37.5662 0.324843 48.5987 0.0191805C59.6312 -0.286482 70.4546 3.06847 79.38 9.56054C79.6579 9.76383 79.8879 10.0249 80.055 10.3258C80.2217 10.6266 80.3212 10.96 80.3471 11.3031C80.3729 11.6462 80.3237 11.9908 80.2033 12.313C80.0829 12.6353 79.8942 12.9277 79.65 13.17Z" fill="url(#paint0_linear_28400_184673)"/>
<path d="M79.6383 86.7874L67.6358 74.7849C67.2587 74.4082 66.7658 74.1691 66.2366 74.1057C65.7074 74.0424 65.172 74.1586 64.7166 74.4357C60.2649 77.1211 55.1645 78.5407 49.9658 78.5407C44.7666 78.5407 39.6663 77.1211 35.2146 74.4357C34.7592 74.1586 34.2239 74.0424 33.6946 74.1057C33.1652 74.1691 32.6725 74.4082 32.2953 74.7849L20.293 86.7874C20.0413 87.0291 19.8459 87.3236 19.7207 87.6495C19.5955 87.9753 19.5436 88.3249 19.5686 88.6732C19.5936 89.0216 19.6949 89.3599 19.8653 89.6645C20.0357 89.9695 20.2711 90.2328 20.5548 90.4361C29.0983 96.6524 39.3921 100.001 49.9579 100.001C60.5233 100.001 70.817 96.6524 79.3608 90.4361C79.6454 90.2341 79.882 89.9716 80.0541 89.6674C80.2258 89.3632 80.3287 89.0253 80.3554 88.677C80.3816 88.3286 80.3312 87.9786 80.2074 87.6524C80.0833 87.3257 79.8891 87.0303 79.6383 86.7874Z" fill="#1F0256"/>
<path d="M49.9901 64.2593C57.8759 64.2593 64.2692 57.8663 64.2692 49.9801C64.2692 42.0943 57.8759 35.7012 49.9901 35.7012C42.1038 35.7012 35.7109 42.0943 35.7109 49.9801C35.7109 57.8663 42.1038 64.2593 49.9901 64.2593Z" fill="#1F0256"/>
</g>
<defs>
<linearGradient id="paint0_linear_28400_184673" x1="68.3696" y1="-7.32838" x2="-32.8531" y2="93.9021" gradientUnits="userSpaceOnUse">
<stop stop-color="#17CCFC"/>
<stop offset="0.5" stop-color="#5D31FF"/>
<stop offset="1" stop-color="#F35AFF"/>
</linearGradient>
<clipPath id="clip0_28400_184673">
<rect width="83.3333" height="100" fill="white"/>
</clipPath>
</defs>
</svg>
